<svg width="100" height="100" viewBox="0 0 100 100" fill="none" xmlns="http://www.w3.org/2000/svg">
<path d="M49.5427 50.8401C57.2305 50.8401 63.4627 44.6079 63.4627 36.92C63.4627 29.2322 57.2305 23 49.5427 23C41.8548 23 35.6226 29.2322 35.6226 36.92C35.6226 44.6079 41.8548 50.8401 49.5427 50.8401ZM49.5427 30.0719C53.3249 30.0719 56.3908 33.1378 56.3908 36.92C56.3908 40.7023 53.3249 43.7682 49.5427 43.7682C45.7604 43.7682 42.6945 40.7023 42.6945 36.92C42.6945 33.1386 45.7604 30.0719 49.5427 30.0719ZM65.5878 52.5383C64.8016 50.9593 62.6255 49.6459 59.7323 51.9256C55.8226 55.0064 49.5418 55.0064 49.5418 55.0064C49.5418 55.0064 43.2611 55.0064 39.3514 51.9256C36.459 49.6459 34.2821 50.9593 33.4959 52.5383C32.1258 55.2909 33.6735 56.6208 37.1671 58.8635C40.1508 60.7788 44.2505 61.4943 46.8986 61.7624L44.6888 63.9722C41.576 67.085 38.571 70.0901 36.4862 72.1749C35.2394 73.4208 35.2394 75.4423 36.4862 76.6891L36.862 77.0649C38.1088 78.3117 40.1294 78.3109 41.3762 77.0649L49.5789 68.8623C52.6917 71.9751 55.6967 74.9801 57.7815 77.0649C59.0275 78.3117 61.0489 78.3117 62.2957 77.0649L62.6715 76.6891C63.9183 75.4423 63.9175 73.4217 62.6715 72.1749L54.4689 63.9722L52.2517 61.7559C54.9015 61.4828 58.9576 60.764 61.9166 58.8643C65.4102 56.6216 66.9579 55.2909 65.5878 52.5383Z" fill="black"/>
</svg>
