<svg width="100" height="100" viewBox="0 0 100 100" fill="none" xmlns="http://www.w3.org/2000/svg">
<path fill-rule="evenodd" clip-rule="evenodd" d="M50 100C77.6142 100 100 77.6142 100 50C100 22.3858 77.6142 0 50 0C22.3858 0 0 22.3858 0 50C0 77.6142 22.3858 100 50 100ZM32.9641 24.0577C34.4693 23.6898 35.728 23.491 38.788 23.1378C39.7252 23.0297 40.4462 23.0147 45.0639 23.0078L50.2808 23L50.2403 23.4128C50.2181 23.6398 50.0963 25.4452 49.9697 27.4248C49.4499 35.5573 49.2068 37.4392 48.3537 39.9397C47.9982 40.9813 47.1416 42.6881 46.5815 43.4707C46.0338 44.2359 44.9278 45.3947 44.2122 45.9529C42.1895 47.531 39.6581 48.4795 35.7768 49.1138C32.587 49.6351 30.0838 49.8593 25.0224 50.0772C24.1488 50.1149 23.3364 50.1582 23.2171 50.1736L23 50.2015L23.0198 45.0706L23.0395 39.9397L23.3556 37.331C23.8059 33.6142 23.993 32.5938 24.5051 31.0608C25.221 28.9181 26.4913 27.1721 28.1535 26.0463C29.3423 25.2411 31.1073 24.5114 32.9641 24.0577ZM51.1667 29.6042C51.0752 28.2787 50.7999 23.41 50.7998 23.1156C50.7998 23.0065 51.0823 23 55.8069 23C60.5184 23 60.8553 23.0077 61.5149 23.1309C61.9005 23.2028 62.7967 23.322 63.5064 23.3955C66.4116 23.6967 67.6675 23.8829 68.8376 24.1857C72.138 25.0399 74.5246 26.8508 75.848 29.5051C76.5387 30.8905 76.8085 31.8498 77.167 34.1941C77.4393 35.9749 77.6877 38.05 77.8389 39.8076C77.9628 41.2476 78.0463 47.2135 77.9676 48.9954L77.9193 50.0859L77.3475 50.0472C75.0218 49.8901 73.5719 49.7971 71.6467 49.6812C65.3609 49.3029 62.7982 48.9373 60.5648 48.1002C58.5643 47.3503 56.6778 46.0812 55.4281 44.6445C54.3659 43.4233 53.4254 41.8 52.865 40.2204C52.0552 37.9379 51.504 34.4924 51.1667 29.6042ZM23.0039 60.4384V55.5879V50.7375L23.219 50.7377C23.3373 50.7378 23.8957 50.7812 24.4599 50.8341C25.8127 50.9609 26.8213 51.0348 29.9198 51.2341C34.8578 51.5515 37.1306 51.8185 38.9516 52.295C43.5655 53.5019 46.8076 56.5325 48.3075 61.04C48.9678 63.0245 49.3861 65.5895 49.8208 70.3189C49.9548 71.7771 49.9714 72.3192 49.9634 74.9619C49.9583 76.6075 49.937 77.9711 49.9159 77.9921C49.8513 78.0566 40.9279 77.7098 37.6629 77.5159C35.6697 77.3975 34.5121 77.2162 32.4346 76.6968C30.7958 76.2872 29.8312 75.94 28.9932 75.4581C26.8479 74.2242 25.3877 72.3415 24.499 69.6628C24.0298 68.2489 23.777 66.8203 23.3023 62.9021L23.0039 60.4384ZM75.419 50.9688C76.2379 50.9139 77.0569 50.8597 77.2389 50.8482C77.4209 50.8368 77.6666 50.822 77.7849 50.8154L78 50.8035L77.9991 54.7826C77.9979 59.6669 77.9137 61.6527 77.5947 64.3091C77.3416 66.4176 76.8481 68.8046 76.4035 70.0717C75.3374 73.1101 73.2165 75.2246 70.1653 76.2908C68.6424 76.823 65.9869 77.3349 63.4734 77.5808C61.3219 77.7913 60.3944 77.825 55.7799 77.8605L51.0645 77.8968V75.4249C51.0645 73.2592 51.0892 72.6515 51.2638 70.5183C51.5562 66.9465 51.7532 65.3001 52.0976 63.5496C53.159 58.1552 55.8343 54.683 60.3223 52.8751C62.5196 51.99 65.1066 51.612 71.779 51.2009C72.962 51.1281 74.6 51.0236 75.419 50.9688Z" fill="black"/>
</svg>
