<svg width="100" height="100" viewBox="0 0 100 100" fill="none" xmlns="http://www.w3.org/2000/svg">
<path fill-rule="evenodd" clip-rule="evenodd" d="M48.0675 46.6452C47.5332 47.2934 46.7439 47.8835 45.6989 48.4155C47.282 48.9957 48.4825 49.908 49.2854 51.1644C50.0935 52.4163 50.498 53.9367 50.498 55.7213C50.498 57.567 50.0422 59.2226 49.1156 60.6857C48.5263 61.6538 47.7943 62.471 46.9145 63.129C45.9237 63.8904 44.7511 64.4118 43.4034 64.691C42.0512 64.9702 40.5873 65.1113 39.011 65.1113H25V34H40.0252C43.8124 34.0619 46.4972 35.159 48.0826 37.3141C49.0341 38.6354 49.5049 40.2215 49.5049 42.0649C49.5049 43.9672 49.0281 45.4892 48.0675 46.6452ZM37.9652 39.4035H32.1745V46.2664H32.1753H38.7582C40.1112 46.2664 41.2046 46.0091 42.0474 45.4953C42.8896 44.9821 43.3091 44.0699 43.3091 42.7599C43.3091 41.3126 42.753 40.352 41.6377 39.8902C40.6794 39.5688 39.4532 39.4035 37.9652 39.4035ZM38.7499 59.7085C40.1006 59.7085 41.1457 59.5319 41.9003 59.1629C43.2608 58.4846 43.9429 57.1935 43.9429 55.2776C43.9429 53.6613 43.2827 52.5445 41.9644 51.9446C41.2272 51.6036 40.1867 51.43 38.8533 51.4172H32.1753V59.7085H38.7499ZM70.154 38.4038V35.2919H57.625V38.4038H70.1533H70.154ZM74.8016 50.216C74.5277 48.4683 73.9391 46.9335 73.0253 45.607C72.0142 44.1001 70.7314 43.0037 69.1785 42.3072C67.6203 41.6115 65.8749 41.2651 63.9379 41.2651C60.6698 41.2651 58.019 42.2921 55.965 44.3559C53.9186 46.4151 52.8984 49.3746 52.8984 53.2403C52.8984 57.3633 54.0348 60.3349 56.2963 62.1677C58.5661 63.9938 61.1807 64.9099 64.1469 64.9099C67.738 64.9099 70.5345 63.8233 72.528 61.6561C73.8154 60.2926 74.5315 58.951 74.6869 57.6282H68.7393C68.3945 58.2779 67.9953 58.7925 67.5425 59.157C66.7118 59.8444 65.6327 60.1794 64.3092 60.1794C63.0536 60.1794 61.9813 59.9047 61.0969 59.3426C59.63 58.4469 58.8573 56.8804 58.7676 54.6408H74.9933C75.0212 52.7106 74.9533 51.2339 74.8016 50.216ZM58.9079 50.797C59.1192 49.3421 59.6338 48.1922 60.4616 47.347C61.2833 46.4997 62.4401 46.0688 63.9379 46.0688C65.3143 46.0688 66.4673 46.4717 67.3909 47.2754C68.322 48.076 68.8389 49.2486 68.9483 50.797H58.9079Z" fill="black"/>
</svg>
