<svg width="100" height="100" viewBox="0 0 100 100" fill="none" xmlns="http://www.w3.org/2000/svg">
<path fill-rule="evenodd" clip-rule="evenodd" d="M50 100C77.6142 100 100 77.6142 100 50C100 22.3858 77.6142 0 50 0C22.3858 0 0 22.3858 0 50C0 77.6142 22.3858 100 50 100ZM61.0435 46.1213C60.1465 37.0785 52.5104 30 43.2248 30C35.54 30 28.7274 34.9459 26.2792 42.1211C20.485 42.9693 16 47.964 16 54.0002C16 60.6187 21.406 66.0247 28.0484 66.0247H58.8851C64.4364 66.0247 68.9702 61.5157 68.9702 55.9635C68.9702 51.139 65.5763 47.1149 61.0435 46.1213ZM58.8851 61.5148H28.0484C23.9028 61.5148 20.5089 58.1448 20.5089 53.9993C20.5089 49.8537 23.8789 46.4837 28.0484 46.4837C30.0604 46.4837 31.9511 47.2593 33.3817 48.6899C34.2547 49.563 35.6844 49.563 36.5814 48.6899C37.4545 47.8168 37.4545 46.3871 36.5814 45.4901C35.0303 43.939 33.1149 42.8718 31.0301 42.3382C33.1636 37.6351 37.9155 34.4832 43.2239 34.4832C50.618 34.4832 56.6302 40.4954 56.6302 47.8656C56.6302 49.2962 56.4122 50.702 55.9512 52.0599C55.563 53.2476 56.1941 54.508 57.3818 54.9202C57.6238 54.9929 57.8667 55.0416 58.0847 55.0416C59.0305 55.0416 59.9027 54.4353 60.2182 53.4905C60.5089 52.5935 60.727 51.6965 60.8723 50.7756C62.9571 51.576 64.4364 53.588 64.4364 55.9396C64.4613 59.0179 61.9405 61.5148 58.8851 61.5148ZM76.777 42.3152C77.8194 41.6124 79.2013 41.9031 79.9041 42.9215C82.4986 46.7763 83.8556 51.2853 83.8556 55.9644C83.8556 60.6436 82.4976 65.1525 79.9041 69.0074C79.492 69.6606 78.7882 70 78.0614 70C77.6253 70 77.1883 69.8786 76.801 69.6118C75.7586 68.9089 75.4918 67.5031 76.1708 66.4847C78.2555 63.3815 79.3466 59.7447 79.3466 55.9635C79.3466 52.1823 78.2555 48.5455 76.1708 45.4423C75.4679 44.4 75.7586 42.9942 76.777 42.3152ZM70.3302 45.9758C71.3726 45.2729 72.7544 45.5397 73.4573 46.5821C75.3479 49.3697 76.3425 52.6183 76.3425 55.9643C76.3425 59.3343 75.3488 62.5828 73.4573 65.3465C73.0452 65.9997 72.3183 66.3392 71.5906 66.3392C71.1545 66.3392 70.7175 66.2178 70.3302 65.951C69.2878 65.2481 69.021 63.8414 69.7239 62.8239C71.1058 60.787 71.8335 58.4364 71.8335 55.9634C71.8335 53.5153 71.1058 51.1389 69.7239 49.1029C69.021 48.0606 69.2878 46.6787 70.3302 45.9758Z" fill="black"/>
</svg>
