<svg width="100" height="100" viewBox="0 0 100 100" fill="none" xmlns="http://www.w3.org/2000/svg">
<path fill-rule="evenodd" clip-rule="evenodd" d="M48.8705 32.0642C47.3199 32.2422 46.831 32.31 46.6782 32.3681C46.5847 32.4037 46.3106 32.4574 46.0689 32.4876C45.8272 32.5178 45.6105 32.5732 45.5873 32.6106C45.5642 32.6481 45.4837 32.6787 45.4085 32.6787C45.1084 32.6787 43.5015 33.2281 42.5467 33.6571C41.9386 33.9302 41.2806 34.2516 41.2354 34.2975C41.2141 34.3191 41.0406 34.4202 40.8498 34.5221C40.2284 34.854 39.3736 35.4269 38.5059 36.0933C38.1852 36.3395 37.0039 37.3793 36.7274 37.6586C35.9821 38.4115 34.6804 39.9964 34.6804 40.151C34.6804 40.198 34.6477 40.2365 34.6076 40.2365C34.5675 40.2365 34.4893 40.3222 34.434 40.4268C34.3787 40.5315 34.1389 40.9393 33.9012 41.333C33.6635 41.7267 33.1561 42.6908 32.7737 43.4755C31.3634 46.3691 30.897 47.2731 30.7018 47.4918C30.642 47.5588 30.5931 47.6383 30.5931 47.6684C30.5931 47.7234 30.2859 48.1844 30.2009 48.2569C30.1761 48.2782 30.124 48.3533 30.0853 48.4241C30.0077 48.5653 29.3212 49.3637 28.8965 49.8065C28.5815 50.1349 27.9406 50.8737 27.7115 51.1725C27.6239 51.2867 27.5309 51.3976 27.5048 51.4189C27.4788 51.4401 27.1564 51.8565 26.7885 52.3443C26.4207 52.8321 26.0926 53.2659 26.0596 53.3083C26.0266 53.3507 25.9158 53.5242 25.8133 53.6939C25.7109 53.8636 25.6047 54.0197 25.5775 54.0409C25.4035 54.1767 24.2541 56.3224 23.9251 57.1257C23.8122 57.4014 23.6699 57.7364 23.609 57.87C23.548 58.0037 23.4981 58.1789 23.4981 58.2595C23.4981 58.34 23.4688 58.4388 23.4331 58.4792C23.3973 58.5194 23.2848 58.8821 23.183 59.2851C23.0219 59.9226 22.9982 60.1929 23.0001 61.3673C23.0025 62.7809 23.0249 62.9062 23.4635 63.9508C23.7213 64.5649 24.661 65.7631 24.8849 65.7631C24.928 65.7631 24.9633 65.7945 24.9633 65.8329C24.9633 65.8713 25.1282 65.9984 25.3297 66.1154C25.5312 66.2325 25.7133 66.3491 25.7345 66.3746C25.7982 66.4512 26.9416 66.9874 27.1562 67.0412C27.2658 67.0688 27.3746 67.1222 27.3979 67.1599C27.4212 67.1976 27.5111 67.2284 27.5976 67.2284C27.6841 67.2284 27.8643 67.2769 27.9979 67.3363C28.6002 67.6036 30.3139 67.9442 32.1355 68.1587C33.0699 68.2687 37.3842 68.2703 38.4979 68.1611C41.6803 67.8489 44.8253 67.2831 47.1675 66.6013C47.4398 66.5221 47.724 66.4572 47.7992 66.4572C47.8744 66.4572 47.9562 66.4245 47.9808 66.3846C48.0056 66.3446 48.1816 66.2886 48.372 66.2599C48.5624 66.2314 48.7352 66.1804 48.7562 66.1466C48.7771 66.1127 48.9357 66.0611 49.1086 66.0319C49.2815 66.0028 49.5155 65.9305 49.6287 65.8714C49.7419 65.8124 49.8957 65.7639 49.9705 65.7636C50.0453 65.7634 50.1668 65.7285 50.2404 65.6862C50.3141 65.6439 50.6346 65.5241 50.9527 65.4199C51.7844 65.1476 52.1916 65.0006 52.4682 64.8728C52.6019 64.8111 52.761 64.7606 52.8216 64.7606C52.8824 64.7606 52.9544 64.7382 52.9817 64.7109C53.0552 64.6375 53.9062 64.2986 54.0182 64.2983C54.0713 64.298 54.1146 64.2669 54.1146 64.2291C54.1146 64.1913 54.2028 64.1382 54.3105 64.1112C54.4183 64.0842 54.774 63.939 55.101 63.7888C56.1219 63.3197 56.1794 63.2953 56.2664 63.2953C56.313 63.2953 56.3511 63.2606 56.3511 63.2182C56.3511 63.1758 56.3945 63.1407 56.4475 63.1402C56.6031 63.1389 58.8913 61.9649 59.8827 61.3777C60.1073 61.2448 60.3075 61.136 60.3277 61.136C60.3479 61.136 60.5112 61.0417 60.6906 60.9264C60.87 60.8112 61.1383 60.6464 61.2868 60.5601C62.032 60.1272 63.5267 59.152 64.6415 58.3717C65.2873 57.9196 65.298 57.9116 65.602 57.6606C65.7062 57.5747 65.9057 57.4337 66.0455 57.3473C66.1852 57.2609 66.2996 57.1584 66.2996 57.1194C66.2996 57.0805 66.3516 57.0486 66.4152 57.0486C66.4789 57.0486 66.5309 57.0186 66.5309 56.982C66.5309 56.9453 66.6772 56.8152 66.8561 56.6928C67.0349 56.5704 67.2364 56.4181 67.3038 56.3545C67.3712 56.2909 67.5957 56.1 67.8026 55.9304C68.0095 55.7607 68.32 55.4958 68.4924 55.3416C68.6648 55.1875 68.9256 54.962 69.0717 54.8404C69.4054 54.5628 72.3637 51.6149 72.6217 51.3029C72.872 51.0002 73.6782 50.0347 73.845 49.8379C73.9169 49.7531 74.1276 49.4668 74.3133 49.2017C74.499 48.9365 74.6806 48.7197 74.7168 48.7197C74.7531 48.7197 74.7827 48.6817 74.7827 48.6354C74.7827 48.5891 74.8435 48.4716 74.9177 48.3744C75.1939 48.0128 75.9181 46.9004 76.0236 46.676C76.0635 46.5912 76.163 46.4176 76.2447 46.2904C76.4479 45.9741 76.7879 45.2772 76.7879 45.1769C76.7879 45.1319 76.8226 45.095 76.865 45.095C76.9074 45.095 76.9421 45.0584 76.9421 45.0137C76.9421 44.9689 77.0053 44.7867 77.0827 44.6088C77.6538 43.2946 77.9238 42.2818 77.9869 41.216C78.1015 39.2815 77.4674 37.9263 75.901 36.7582C75.514 36.4696 74.1489 35.7387 73.5874 35.5194C72.3722 35.0449 70.7147 34.6319 69.153 34.4143C67.3226 34.1593 66.789 34.1315 63.8317 34.1373C60.2022 34.1444 59.9498 34.1146 57.585 33.3989C57.0972 33.2512 56.6449 33.1026 56.5799 33.0687C56.5149 33.0346 56.3426 32.9807 56.1969 32.9487C56.0512 32.9167 55.8788 32.8631 55.8138 32.8294C55.7488 32.7959 55.3833 32.6939 55.0015 32.6029C54.6198 32.5119 54.186 32.4063 54.0375 32.3682C53.7638 32.2978 52.945 32.1908 51.6854 32.0606C50.8901 31.9784 49.6031 31.98 48.8705 32.0642ZM63.8317 48.4409C64.8524 48.776 65.3666 49.2146 65.5737 49.9268C65.6874 50.318 65.6913 50.4381 65.6048 50.8775C65.5504 51.154 65.4415 51.5012 65.3628 51.6491C65.2842 51.7969 65.2199 51.9618 65.2199 52.0154C65.2199 52.069 65.1852 52.1129 65.1428 52.1129C65.1004 52.1129 65.0657 52.148 65.0657 52.1908C65.0657 52.2622 64.562 53.026 64.4559 53.1155C64.4307 53.1367 64.2768 53.32 64.1138 53.5228C63.7524 53.9725 62.9389 54.7844 62.3677 55.2656C62.1351 55.4616 61.8777 55.6819 61.7958 55.7552C61.7138 55.8286 61.505 55.9847 61.3318 56.102C61.1586 56.2195 60.9891 56.359 60.9552 56.4121C60.9212 56.4653 60.846 56.5088 60.7881 56.5088C60.7301 56.5088 60.6711 56.5395 60.6569 56.5771C60.6238 56.6654 59.3862 57.5113 59.2903 57.5113C59.2502 57.5113 59.2059 57.5401 59.1917 57.5753C59.1576 57.6602 57.4701 58.6807 56.9681 58.9201C56.862 58.9707 56.7579 59.0321 56.7367 59.0566C56.6722 59.1314 54.1851 60.3324 53.6905 60.5276C53.436 60.6281 53.2104 60.732 53.1892 60.7585C53.168 60.785 53.0639 60.8311 52.9578 60.8609C52.8518 60.8908 52.6609 60.9623 52.5337 61.0199C51.9604 61.2792 51.7316 61.3673 51.6313 61.3673C51.5719 61.3673 51.4905 61.3972 51.4501 61.4338C51.4099 61.4703 50.9084 61.6479 50.3358 61.8283C49.7632 62.0088 49.146 62.2044 48.9642 62.2631C48.7824 62.3218 48.5676 62.3699 48.4867 62.3699C48.4059 62.3699 48.3193 62.403 48.2943 62.4434C48.2693 62.4839 48.0409 62.5405 47.7867 62.5692C47.5326 62.598 47.3075 62.6493 47.2866 62.6831C47.2656 62.717 47.0495 62.7669 46.8063 62.794C46.5631 62.8212 46.2773 62.8744 46.1713 62.9122C46.0653 62.95 45.3712 63.0353 44.6289 63.1018C43.4315 63.209 43.179 63.21 42.3891 63.1104C41.8995 63.0486 41.3963 62.9574 41.2709 62.9078C40.4128 62.5681 40.0154 62.2607 39.7336 61.7181C39.5408 61.347 39.5343 60.4431 39.7218 60.0948C39.7904 59.9676 39.8467 59.822 39.847 59.7712C39.8475 59.6758 40.3735 58.7364 40.4647 58.6681C40.493 58.6469 40.5479 58.5726 40.5867 58.5029C40.7744 58.1658 41.8466 57.0183 42.7056 56.2353C43.0326 55.9372 44.2606 54.9788 44.6277 54.735C44.7236 54.6714 44.8421 54.5846 44.8911 54.5422C45.103 54.3586 45.4774 54.118 45.5513 54.118C45.5954 54.118 45.6315 54.0889 45.6315 54.0533C45.6315 54.0177 45.7095 53.9479 45.805 53.8983C45.9005 53.8486 46.0714 53.7476 46.185 53.6738C46.769 53.2946 47.4804 52.8841 47.5537 52.8841C47.5992 52.8841 47.6366 52.8567 47.6366 52.8231C47.6366 52.7895 47.7493 52.7081 47.8872 52.6421C48.025 52.5763 48.7241 52.222 49.4406 51.8549C50.1571 51.4878 50.7904 51.1875 50.848 51.1875C50.9056 51.1875 50.9527 51.1528 50.9527 51.1104C50.9527 51.068 50.9894 51.0333 51.0341 51.0333C51.1097 51.0333 51.5202 50.8647 52.071 50.6073C52.1982 50.5479 52.632 50.3759 53.035 50.2251C53.4379 50.0743 53.8208 49.9213 53.8858 49.8849C53.9508 49.8486 54.118 49.7939 54.2573 49.7633C54.3967 49.7327 54.6037 49.6591 54.7175 49.5998C54.8313 49.5404 54.9812 49.4916 55.0506 49.4913C55.1199 49.4911 55.2761 49.439 55.3976 49.3756C55.5191 49.3123 55.6971 49.2603 55.7931 49.26C55.8891 49.2597 56.0279 49.226 56.1016 49.1848C56.229 49.1138 56.6746 48.9926 57.7007 48.7497C58.1522 48.6429 59.0852 48.4641 59.8601 48.3359C60.0721 48.3008 60.9571 48.2788 61.8266 48.2869C63.114 48.2989 63.4863 48.3275 63.8317 48.4409Z" fill="black"/>
</svg>
