<svg width="100" height="100" viewBox="0 0 100 100" fill="none" xmlns="http://www.w3.org/2000/svg">
<path fill-rule="evenodd" clip-rule="evenodd" d="M50 100C77.6142 100 100 77.6142 100 50C100 22.3858 77.6142 0 50 0C22.3858 0 0 22.3858 0 50C0 77.6142 22.3858 100 50 100ZM63.4627 36.92C63.4627 44.6079 57.2305 50.8401 49.5427 50.8401C41.8548 50.8401 35.6226 44.6079 35.6226 36.92C35.6226 29.2322 41.8548 23 49.5427 23C57.2305 23 63.4627 29.2322 63.4627 36.92ZM56.3908 36.92C56.3908 33.1378 53.3249 30.0719 49.5427 30.0719C45.7604 30.0719 42.6945 33.1386 42.6945 36.92C42.6945 40.7023 45.7604 43.7682 49.5427 43.7682C53.3249 43.7682 56.3908 40.7023 56.3908 36.92ZM59.7323 51.9256C62.6255 49.6459 64.8016 50.9593 65.5878 52.5383C66.9579 55.2909 65.4102 56.6216 61.9166 58.8643C58.9576 60.764 54.9015 61.4828 52.2517 61.7559L54.4689 63.9722L62.6716 72.1749C63.9175 73.4217 63.9183 75.4423 62.6716 76.6891L62.2957 77.0649C61.0489 78.3117 59.0275 78.3117 57.7815 77.0649L49.5789 68.8623L41.3762 77.0649C40.1294 78.3109 38.1088 78.3117 36.862 77.0649L36.4862 76.6891C35.2394 75.4423 35.2394 73.4208 36.4862 72.1749L44.6888 63.9722L46.8986 61.7624C44.2505 61.4943 40.1508 60.7788 37.1671 58.8635C33.6735 56.6208 32.1258 55.2909 33.4959 52.5383C34.2821 50.9593 36.459 49.6459 39.3514 51.9256C43.2611 55.0064 49.5418 55.0064 49.5418 55.0064C49.5418 55.0064 55.8226 55.0064 59.7323 51.9256Z" fill="black"/>
</svg>
