<svg width="100" height="100" viewBox="0 0 100 100" fill="none" xmlns="http://www.w3.org/2000/svg">
<path d="M64.5729 23C64.5729 23 39.2866 23 35.2386 23C31.1905 23 30 26.0445 30 27.9615C30 29.8801 30 74.5691 30 74.5691C30 76.729 31.1608 77.5297 31.812 77.7937C32.4641 78.0586 34.2639 78.2815 35.3426 77.0367C35.3426 77.0367 49.1911 60.9671 49.4298 60.7293C49.7899 60.3692 49.7899 60.3692 50.1492 60.3692C50.8685 60.3692 56.2067 60.3692 59.1097 60.3692C62.8745 60.3692 63.4802 57.6839 63.8727 56.1026C64.0904 55.2233 65.7826 46.6377 67.2547 39.2209L69.0999 30.0078C70.0378 25.4545 68.8805 23 64.5729 23ZM62.8404 30.9396L61.6088 37.3564C61.4619 38.0505 60.5887 38.7795 59.7784 38.7795C58.9689 38.7795 48.3511 38.7795 48.3511 38.7795C47.0653 38.7795 46.1448 39.6562 46.1448 40.9403V42.3397C46.1448 43.6255 47.0705 44.5364 48.3572 44.5364C48.3572 44.5364 57.1455 44.5364 58.0529 44.5364C58.9611 44.5364 59.8518 45.532 59.6551 46.5014C59.4576 47.4725 58.5363 52.2819 58.4252 52.8125C58.3142 53.3439 57.7059 54.2512 56.6263 54.2512C55.7164 54.2512 48.7121 54.2512 48.7121 54.2512C47.2707 54.2512 46.8354 54.4392 45.8713 55.6376C44.9062 56.8369 36.235 67.2502 36.235 67.2502C36.1476 67.3507 36.0611 67.3218 36.0611 67.2117V30.8425C36.0611 30.0217 36.7744 29.0593 37.8443 29.0593C37.8443 29.0593 60.4663 29.0593 61.385 29.0593C62.2521 29.0611 63.0615 29.8758 62.8404 30.9396Z" fill="black"/>
</svg>
