<svg width="100" height="100" viewBox="0 0 100 100" fill="none" xmlns="http://www.w3.org/2000/svg">
<path fill-rule="evenodd" clip-rule="evenodd" d="M50 100C77.6142 100 100 77.6142 100 50C100 22.3858 77.6142 0 50 0C22.3858 0 0 22.3858 0 50C0 77.6142 22.3858 100 50 100ZM30.2563 61.85C33.1547 61.8422 35.4984 59.4906 35.5062 56.5922V51.3438H30.2563C27.3609 51.35 25.0078 53.6937 25 56.5922C25.0078 59.4984 27.3516 61.8422 30.2563 61.85ZM43.4078 51.3438C40.5109 51.35 38.1578 53.6937 38.15 56.5922V69.7438C38.1578 72.6391 40.5016 74.9922 43.4078 75C46.3063 74.9922 48.65 72.6391 48.6562 69.7438V56.5922C48.65 53.6937 46.2969 51.35 43.4078 51.3438ZM38.15 30.2563C38.1578 33.1547 40.5094 35.4984 43.4078 35.5062H48.6562V30.2563C48.65 27.3609 46.3063 25.0078 43.4078 25C40.5016 25.0078 38.1578 27.3609 38.15 30.2563ZM48.6562 43.4078C48.65 40.5016 46.3063 38.1578 43.4078 38.15H30.2563C27.3609 38.1578 25.0078 40.5016 25 43.4078C25.0078 46.3063 27.3609 48.65 30.2563 48.6562H43.4078C46.3063 48.65 48.65 46.3063 48.6562 43.4078ZM69.7438 38.15C66.8453 38.1578 64.5016 40.5016 64.4938 43.4078V48.6562H69.7438C72.6391 48.65 74.9922 46.3063 75 43.4078C74.9922 40.5016 72.6391 38.1578 69.7438 38.15ZM56.5922 48.6562C59.4891 48.65 61.8422 46.3063 61.85 43.4078V30.2563C61.8422 27.3516 59.4984 25.0078 56.5922 25C53.6937 25.0078 51.35 27.3609 51.3438 30.2563V43.4078C51.35 46.2984 53.6937 48.65 56.5922 48.6562ZM61.85 69.7438C61.8422 66.8453 59.4984 64.4938 56.5922 64.4938H51.3438V69.7438C51.35 72.6391 53.6937 74.9922 56.5922 75C59.4984 74.9922 61.8422 72.6484 61.85 69.7438ZM51.3438 56.5922C51.35 59.4891 53.6937 61.8422 56.5922 61.85H69.7438C72.6484 61.8422 74.9922 59.4984 75 56.5922C74.9922 53.6937 72.6391 51.35 69.7438 51.3438H56.5922C53.6937 51.35 51.35 53.6937 51.3438 56.5922Z" fill="black"/>
</svg>
