<svg width="100" height="100" viewBox="0 0 100 100" fill="none" xmlns="http://www.w3.org/2000/svg">
<path fill-rule="evenodd" clip-rule="evenodd" d="M50 19.5C33.1819 19.5 19.5 33.1819 19.5 50C19.5 66.8181 33.1819 80.5 50 80.5C66.8181 80.5 80.5 66.8181 80.5 50C80.5 33.1819 66.8181 19.5 50 19.5ZM22.438 50C22.438 34.8027 34.8027 22.438 50 22.438C65.1973 22.438 77.562 34.8027 77.562 50C77.562 65.1973 65.1973 77.562 50 77.562C34.8027 77.562 22.438 65.1973 22.438 50ZM42.4629 36.0612C40.4627 36.0612 38.6629 36.8077 37.3914 38.3074C36.125 39.8011 35.4268 41.9893 35.5107 44.7997L35.5252 45.2848H39.7554L39.7636 44.7932C39.7901 43.2049 40.0944 42.1693 40.555 41.5412C40.9942 40.9422 41.6179 40.6564 42.4629 40.6564C43.3434 40.6564 44.2623 40.9144 45.301 41.3463C46.0803 41.6703 46.8965 42.0782 47.7973 42.5283L47.8382 42.5488L47.8393 42.5494L47.8397 42.5496C48.1333 42.6963 48.4359 42.8475 48.7491 43.0016L48.7587 43.006C52.5047 44.7514 54.5442 45.4492 56.8323 45.4492C58.62 45.4492 60.3831 44.8675 61.6583 43.437C62.9311 42.0092 63.6526 39.8092 63.5136 36.7033L63.4922 36.2256H59.8143V36.7205L59.3144 36.716C59.288 38.1802 59.0481 39.2152 58.6383 39.8702C58.2532 40.4858 57.6993 40.7994 56.8863 40.7994C55.0214 40.7994 53.1329 39.889 50.3885 38.566L50.3798 38.5618L50.3764 38.5602C46.7 36.8222 44.8682 36.0612 42.4629 36.0612ZM52.2359 46.2713L47.1367 44.4636V67.9925H52.2359V46.2713Z" fill="black"/>
<path fill-rule="evenodd" clip-rule="evenodd" d="M50 19.65C33.2647 19.65 19.65 33.2647 19.65 50C19.65 66.7353 33.2647 80.35 50 80.35C66.7353 80.35 80.35 66.7353 80.35 50C80.35 33.2647 66.7353 19.65 50 19.65ZM19.35 50C19.35 33.099 33.099 19.35 50 19.35C66.901 19.35 80.65 33.099 80.65 50C80.65 66.901 66.901 80.65 50 80.65C33.099 80.65 19.35 66.901 19.35 50ZM22.288 50C22.288 34.7199 34.7199 22.288 50 22.288C65.2801 22.288 77.712 34.7199 77.712 50C77.712 65.2801 65.2801 77.712 50 77.712C34.7199 77.712 22.288 65.2801 22.288 50ZM50 22.588C34.8856 22.588 22.588 34.8856 22.588 50C22.588 65.1144 34.8856 77.412 50 77.412C65.1144 77.412 77.412 65.1144 77.412 50C77.412 34.8856 65.1144 22.588 50 22.588ZM42.4628 36.2112C40.5016 36.2112 38.7455 36.942 37.5058 38.4044C36.2696 39.8625 35.5775 42.011 35.6606 44.7953L35.6707 45.1348H39.6078L39.6136 44.7907C39.6404 43.1888 39.9469 42.1168 40.434 41.4525C40.9061 40.8087 41.5784 40.5064 42.4628 40.5064C43.3721 40.5064 44.3122 40.7728 45.3586 41.2078C46.1427 41.5338 46.9628 41.9436 47.8612 42.3926L47.9053 42.4146L47.9064 42.4152C47.9065 42.4153 47.9062 42.4151 47.9064 42.4152M37.277 38.2104C38.5801 36.6733 40.4238 35.9112 42.4628 35.9112C44.9065 35.9112 46.7672 36.6881 50.4404 38.4246L50.4451 38.4268L50.4536 38.4309C53.2096 39.7595 55.0633 40.6494 56.8862 40.6494C57.2732 40.6494 57.5894 40.5749 57.8516 40.4336C58.1133 40.2925 58.33 40.0801 58.5111 39.7907C58.8995 39.1699 59.1381 38.1675 59.1644 36.7133L59.167 36.5647L59.6642 36.5692V36.0756H63.6356L63.6634 36.6965C63.8035 39.8274 63.0772 42.0707 61.7703 43.5368C60.4602 45.0065 58.6521 45.5992 56.8322 45.5992C54.5085 45.5992 52.4428 44.888 48.6953 43.142L48.6858 43.1376L48.6829 43.1362C48.3691 42.9818 48.0662 42.8304 47.7726 42.6837L47.7714 42.6831L47.7302 42.6625C46.8282 42.2118 46.0169 41.8064 45.2434 41.4848C44.2123 41.0561 43.3147 40.8064 42.4628 40.8064C41.6573 40.8064 41.0823 41.0757 40.676 41.6298C40.2419 42.2219 39.9399 43.221 39.9136 44.7957L39.9029 45.4348H35.3796L35.3607 44.8042C35.276 41.9677 35.9804 39.7397 37.277 38.2104ZM42.4628 36.2112C44.8299 36.2112 46.6328 36.9563 50.3122 38.6958L42.4628 36.2112ZM50.3122 38.6958L50.3145 38.6968L50.3156 38.6974L50.3231 38.701L50.3559 38.7169C53.0714 40.0259 54.9871 40.9494 56.8862 40.9494C57.3123 40.9494 57.6796 40.8671 57.9939 40.6977C58.3086 40.5281 58.5614 40.2759 58.7654 39.9498C59.182 39.2839 59.4212 38.2649 59.4609 36.8673L59.9642 36.8719V36.3756H63.3487L63.3637 36.71C63.5016 39.7909 62.785 41.9477 61.5463 43.3372C60.306 44.7286 58.5879 45.2992 56.8322 45.2992C54.5799 45.2992 52.5665 44.6147 48.822 42.8701L48.8139 42.8663M46.9867 44.2512L52.3859 46.1653V68.1425H46.9867V44.2512ZM47.2867 44.6759V67.8425H52.0859V46.3772L47.2867 44.6759Z" fill="black"/>
</svg>
