<svg width="100" height="100" viewBox="0 0 100 100" fill="none" xmlns="http://www.w3.org/2000/svg">
<path fill-rule="evenodd" clip-rule="evenodd" d="M73.3759 48.4975C73.2699 48.4991 73.1649 48.5516 73.0126 48.6277C72.9274 48.6703 72.8274 48.7203 72.7041 48.7729C72.7041 46.9666 72.7046 45.1746 72.7051 43.393V43.3808C72.7063 38.8255 72.7075 34.3378 72.7007 29.8509C72.6956 25.8526 70.8558 24.0017 66.9129 24.0009L66.9122 24.0009L66.9116 24.0009C55.6075 24 44.3042 23.9991 33 24.0017C29.2668 24.0026 27.4424 25.8278 27.4356 29.5952C27.4277 33.7693 27.4293 37.9438 27.4309 42.1181V42.1182C27.4315 43.8258 27.4322 45.5334 27.4322 47.2409V48.8658C27.2797 48.7878 27.1527 48.7125 27.0416 48.6466C26.8347 48.5238 26.6829 48.4338 26.5242 48.4199C26.4673 48.4148 26.4062 48.4087 26.3425 48.4024C25.8841 48.3569 25.2918 48.298 25.1712 48.4941C24.9334 48.882 24.9828 49.5188 25.0834 50.0167C25.131 50.2513 25.345 50.4562 25.5539 50.6562C25.626 50.7252 25.6974 50.7936 25.7612 50.8624C28.2054 53.5019 31.1799 55.3842 34.4502 56.8003C35.5005 57.2556 35.8475 57.7082 35.5363 58.9393C34.561 62.7927 34.3462 66.6726 36.2831 70.3394C37.8936 73.388 40.3514 75.2926 43.9329 75.3309C47.1785 75.365 49.1947 73.411 49.2621 70.1475C49.3082 67.8944 49.2973 65.6401 49.2863 63.3505C49.2815 62.3359 49.2766 61.3143 49.2766 60.2829C49.8273 60.3886 50.2135 60.4628 50.7114 60.5591C50.7114 60.7493 50.7106 60.9339 50.7099 61.1147V61.1153V61.1155C50.7082 61.5054 50.7067 61.8773 50.7131 62.2488C50.7276 63.0677 50.7378 63.8868 50.7481 64.7058V64.7059C50.774 66.7801 50.7999 68.8543 50.8947 70.925C50.991 73.0265 52.182 74.4247 54.1761 75.0402C56.8121 75.8544 59.1821 75.1459 61.2453 73.4537C64.4832 70.7989 65.3579 67.1569 65.1516 63.2003C65.0833 61.8888 64.8559 60.5854 64.6307 59.2949L64.6307 59.2948L64.6306 59.2945C64.5295 58.7152 64.4289 58.1386 64.3434 57.565C64.9378 57.2334 65.5403 56.9142 66.1425 56.5951L66.1426 56.595C67.5266 55.8617 68.9092 55.1291 70.19 54.2487C71.8388 53.1148 73.3086 51.6987 74.7391 50.287C74.9674 50.0616 74.9706 49.6078 74.9737 49.1539C74.9752 48.9451 74.9766 48.7362 75 48.5495C74.8551 48.5438 74.7102 48.5369 74.5654 48.5301C74.1689 48.5113 73.7724 48.4925 73.3759 48.4975ZM69.213 50.9383C65.8881 52.5163 62.4073 53.4013 58.7277 53.4678C57.8653 53.4833 57.0026 53.4792 56.1399 53.475C55.3482 53.4712 54.5566 53.4674 53.7651 53.4788C51.8802 53.5061 51.3653 53.8829 50.552 56.0305C48.7536 53.2678 46.2185 53.3669 43.6815 53.4661C43.4126 53.4766 43.1438 53.4871 42.8758 53.4942C38.7248 53.605 34.7486 52.8266 31.0239 50.9681C30.6019 50.7576 30.1202 50.1292 30.1202 49.6944C30.1159 43.0805 30.1585 36.4649 30.2591 29.8509C30.2907 27.7571 31.2131 26.8978 33.3018 26.717C33.9412 26.6616 34.5857 26.6377 35.2286 26.6377C45.1546 26.6326 55.0815 26.6318 65.0075 26.6352C69.3545 26.6369 70.2199 27.5099 70.225 31.9047C70.2272 33.7694 70.226 35.6342 70.2248 37.499C70.2224 41.4246 70.2199 45.3502 70.2488 49.2759C70.2548 50.1395 69.9846 50.5726 69.213 50.9383ZM43.0966 39.4504C39.7155 39.4956 37.0053 42.1137 37.0394 45.3013C37.0735 48.4821 39.874 51.0687 43.2271 51.0167C46.6218 50.9638 49.3209 48.3636 49.2954 45.17C49.2698 42.0114 46.4462 39.4061 43.0966 39.4504ZM51.4454 45.2928C51.4258 42.0949 54.1241 39.4998 57.518 39.4529C60.8702 39.4069 63.6665 41.9986 63.6946 45.1794C63.7236 48.3755 61.0185 50.9809 57.6314 51.0201C54.2733 51.0584 51.465 48.4591 51.4454 45.2928Z" fill="black"/>
</svg>
