<svg width="100" height="100" viewBox="0 0 100 100" fill="none" xmlns="http://www.w3.org/2000/svg">
<path d="M71.4387 38.8522C70.7788 38.1006 69.9582 37.48 69.0033 36.9737C68.9509 37.3002 68.895 37.6319 68.8278 37.9749C66.5748 49.5481 58.8617 53.5504 49.0108 53.5504H43.995C42.7912 53.5504 41.7752 54.4268 41.5884 55.6149L39.3292 69.9351L44.5179 37.0296C44.6314 36.3146 45.0905 35.7289 45.7085 35.4321C45.9896 35.2986 46.303 35.2235 46.6321 35.2235H60.0323C61.6192 35.2235 63.0988 35.3265 64.4518 35.5447C64.8394 35.6067 65.2157 35.6783 65.5805 35.7603C65.9454 35.8406 66.2998 35.9323 66.6437 36.0327C66.8157 36.0833 66.9842 36.1348 67.15 36.1898C67.8152 36.4115 68.4341 36.6708 69.0033 36.9737C69.6745 32.6938 68.9989 29.7835 66.6848 27.1472C64.1367 24.2448 59.5347 23 53.6451 23H36.5516C35.3479 23 34.3248 23.8764 34.1354 25.0645L27.0185 70.1996C26.8771 71.0908 27.5658 71.8957 28.4666 71.8957H39.0202L38.2913 76.5152C38.1683 77.2938 38.7706 78 39.5588 78H48.4539C49.5066 78 50.4031 77.2336 50.5672 76.1939L50.6536 75.7409L52.3305 65.1157L52.4387 64.5282C52.6028 63.4895 53.4993 62.7222 54.5521 62.7222H55.8833C64.4999 62.7222 71.2475 59.2218 73.2186 49.0968C74.0417 44.8657 73.6158 41.333 71.4387 38.8522Z" fill="black"/>
</svg>
