<svg width="100" height="100" viewBox="0 0 100 100" fill="none" xmlns="http://www.w3.org/2000/svg">
<path fill-rule="evenodd" clip-rule="evenodd" d="M50 100C77.6142 100 100 77.6142 100 50C100 22.3858 77.6142 0 50 0C22.3858 0 0 22.3858 0 50C0 77.6142 22.3858 100 50 100ZM69.701 47.7027C68.5637 47.7027 67.4789 47.9322 66.4893 48.3468C65.8294 40.8673 59.5555 35 51.9061 35C50.0326 35 48.2068 35.3661 46.5939 35.9895C45.9673 36.2318 45.8021 36.4819 45.795 36.9664V63.3104C45.8021 63.8179 46.196 64.2126 46.6916 64.2619C46.7122 64.265 69.701 64.2619 69.701 64.2619C74.2865 64.2619 78.0008 60.5888 78.0008 56.0033C78.0008 51.4194 74.2865 47.7027 69.701 47.7027ZM42.7001 36.9441C42.87 36.9441 43.0297 36.9902 43.1663 37.0752C43.4291 37.2324 43.6102 37.5239 43.615 37.8534L44.0192 56.5529L43.615 63.3398V63.3327C43.6078 63.8354 43.198 64.2452 42.7001 64.2452C42.2037 64.2452 41.794 63.8354 41.7884 63.3406L41.6026 59.9924L41.412 56.5537L41.7852 37.9495L41.7876 37.8542C41.79 37.5731 41.921 37.3206 42.1251 37.153C42.2824 37.0219 42.4833 36.9441 42.7001 36.9441ZM35.5701 41.2048C35.5574 40.8236 35.258 40.5242 34.8871 40.5242C34.513 40.5242 34.212 40.8236 34.2041 41.2048L33.776 56.5489L34.2041 63.5932C34.212 63.9696 34.513 64.269 34.8871 64.269C35.258 64.269 35.5574 63.9704 35.5701 63.5884L36.0497 56.5489L35.5701 41.2048ZM30.4818 42.8829C30.4945 42.5684 30.7447 42.3182 31.0513 42.3182C31.353 42.3182 31.6056 42.5684 31.6183 42.8829L32.1774 56.5847L31.6183 63.7449V63.7417C31.6056 64.0562 31.353 64.3063 31.0513 64.3063C30.7447 64.3063 30.4945 64.057 30.4818 63.7449L29.9895 56.5847L30.4818 42.8829ZM23.9903 48.7645C23.7815 48.7645 23.6115 48.9321 23.5956 49.1536L23 56.541L23.5956 63.6885C23.6107 63.91 23.7815 64.0768 23.9903 64.0768C24.1992 64.0768 24.3691 63.9092 24.3874 63.6885L25.0632 56.541L24.3874 49.1513C24.3699 48.9321 24.2 48.7645 23.9903 48.7645ZM27.8365 49.6849C27.8214 49.4324 27.6252 49.2418 27.3854 49.2418C27.1408 49.2418 26.947 49.4324 26.9319 49.6905L26.3704 56.5418L26.9319 63.748C26.947 64.003 27.1408 64.1967 27.3854 64.1967C27.6252 64.1967 27.8214 64.003 27.8365 63.748L28.4758 56.5418L27.8365 49.6849ZM38.7666 41.3494C38.3282 41.3494 37.978 41.6996 37.9677 42.1459L37.6119 56.5513L37.97 63.4828C37.978 63.9235 38.3282 64.2746 38.7666 64.2746C39.205 64.2746 39.5584 63.9243 39.5655 63.478V63.4836L39.9674 56.5529L39.5655 42.1451C39.5576 41.6996 39.205 41.3494 38.7666 41.3494Z" fill="black"/>
</svg>
