<svg width="100" height="100" viewBox="0 0 100 100" fill="none" xmlns="http://www.w3.org/2000/svg">
<path d="M25 50C25 45.4669 26.1169 41.2831 28.35 37.45C30.5831 33.6169 33.6169 30.5831 37.45 28.35C41.2831 26.1169 45.4669 25 50 25C54.5331 25 58.7169 26.1169 62.55 28.35C66.3831 30.5831 69.4169 33.6169 71.65 37.45C73.8831 41.2831 75 45.4669 75 50C75 54.5331 73.8831 58.7169 71.65 62.55C69.4169 66.3831 66.3831 69.4169 62.55 71.65C58.7169 73.8831 54.5331 75 50 75C45.4669 75 41.2831 73.8831 37.45 71.65C33.6169 69.4169 30.5831 66.3831 28.35 62.55C26.1169 58.7169 25 54.5331 25 50ZM29.15 50C29.15 55.2 30.9 59.7831 34.4 63.75C36 60.6169 38.5331 57.6331 42 54.8C45.4669 51.9669 48.85 50.1831 52.15 49.45C51.65 48.2831 51.1669 47.2331 50.7 46.3C44.9669 48.1331 38.7669 49.05 32.1 49.05C30.8 49.05 29.8331 49.0331 29.2 49C29.2 49.1331 29.1919 49.3 29.175 49.5C29.1581 49.7 29.15 49.8669 29.15 50ZM29.8 44.85C30.5331 44.9169 31.6169 44.95 33.05 44.95C38.6169 44.95 43.9 44.2 48.9 42.7C46.3669 38.2 43.5831 34.45 40.55 31.45C37.9169 32.7831 35.6581 34.6331 33.775 37C31.8919 39.3669 30.5669 41.9831 29.8 44.85ZM37.25 66.45C41.0169 69.3831 45.2669 70.85 50 70.85C52.4669 70.85 54.9169 70.3831 57.35 69.45C56.6831 63.75 55.3831 58.2331 53.45 52.9C50.3831 53.5669 47.2919 55.25 44.175 57.95C41.0581 60.65 38.75 63.4831 37.25 66.45ZM44.9 29.85C47.8331 32.8831 50.55 36.6669 53.05 41.2C57.5831 39.3 61 36.8831 63.3 33.95C59.4331 30.75 55 29.15 50 29.15C48.3 29.15 46.6 29.3831 44.9 29.85ZM54.85 44.75C55.35 45.8169 55.9169 47.1669 56.55 48.8C59.0169 48.5669 61.7 48.45 64.6 48.45C66.6669 48.45 68.7169 48.5 70.75 48.6C70.4831 44.0669 68.85 40.0331 65.85 36.5C63.6831 39.7331 60.0169 42.4831 54.85 44.75ZM57.8 52.3C59.5 57.2331 60.65 62.3 61.25 67.5C63.8831 65.8 66.0331 63.6169 67.7 60.95C69.3669 58.2831 70.3669 55.4 70.7 52.3C68.2669 52.1331 66.05 52.05 64.05 52.05C62.2169 52.05 60.1331 52.1331 57.8 52.3Z" fill="black"/>
</svg>
