<svg width="100" height="100" viewBox="0 0 100 100" fill="none" xmlns="http://www.w3.org/2000/svg">
<path fill-rule="evenodd" clip-rule="evenodd" d="M50 100C77.6142 100 100 77.6142 100 50C100 22.3858 77.6142 0 50 0C22.3858 0 0 22.3858 0 50C0 77.6142 22.3858 100 50 100ZM28.35 37.45C26.1169 41.2831 25 45.4669 25 50C25 54.5331 26.1169 58.7169 28.35 62.55C30.5831 66.3831 33.6169 69.4169 37.45 71.65C41.2831 73.8831 45.4669 75 50 75C54.5331 75 58.7169 73.8831 62.55 71.65C66.3831 69.4169 69.4169 66.3831 71.65 62.55C73.8831 58.7169 75 54.5331 75 50C75 45.4669 73.8831 41.2831 71.65 37.45C69.4169 33.6169 66.3831 30.5831 62.55 28.35C58.7169 26.1169 54.5331 25 50 25C45.4669 25 41.2831 26.1169 37.45 28.35C33.6169 30.5831 30.5831 33.6169 28.35 37.45ZM34.4 63.75C30.9 59.7831 29.15 55.2 29.15 50C29.15 49.8669 29.1581 49.7 29.175 49.5C29.1919 49.3 29.2 49.1331 29.2 49C29.8331 49.0331 30.8 49.05 32.1 49.05C38.7669 49.05 44.9669 48.1331 50.7 46.3C51.1669 47.2331 51.65 48.2831 52.15 49.45C48.85 50.1831 45.4669 51.9669 42 54.8C38.5331 57.6331 36 60.6169 34.4 63.75ZM33.05 44.95C31.6169 44.95 30.5331 44.9169 29.8 44.85C30.5669 41.9831 31.8919 39.3669 33.775 37C35.6581 34.6331 37.9169 32.7831 40.55 31.45C43.5831 34.45 46.3669 38.2 48.9 42.7C43.9 44.2 38.6169 44.95 33.05 44.95ZM50 70.85C45.2669 70.85 41.0169 69.3831 37.25 66.45C38.75 63.4831 41.0581 60.65 44.175 57.95C47.2919 55.25 50.3831 53.5669 53.45 52.9C55.3831 58.2331 56.6831 63.75 57.35 69.45C54.9169 70.3831 52.4669 70.85 50 70.85ZM53.05 41.2C50.55 36.6669 47.8331 32.8831 44.9 29.85C46.6 29.3831 48.3 29.15 50 29.15C55 29.15 59.4331 30.75 63.3 33.95C61 36.8831 57.5831 39.3 53.05 41.2ZM56.55 48.8C55.9169 47.1669 55.35 45.8169 54.85 44.75C60.0169 42.4831 63.6831 39.7331 65.85 36.5C68.85 40.0331 70.4831 44.0669 70.75 48.6C68.7169 48.5 66.6669 48.45 64.6 48.45C61.7 48.45 59.0169 48.5669 56.55 48.8ZM61.25 67.5C60.65 62.3 59.5 57.2331 57.8 52.3C60.1331 52.1331 62.2169 52.05 64.05 52.05C66.05 52.05 68.2669 52.1331 70.7 52.3C70.3669 55.4 69.3669 58.2831 67.7 60.95C66.0331 63.6169 63.8831 65.8 61.25 67.5Z" fill="black"/>
</svg>
