<svg width="100" height="100" viewBox="0 0 100 100" fill="none" xmlns="http://www.w3.org/2000/svg">
<path fill-rule="evenodd" clip-rule="evenodd" d="M78 50.5C78 65.6878 65.6878 78 50.5 78C35.3122 78 23 65.6878 23 50.5C23 35.3122 35.3122 23 50.5 23C65.6878 23 78 35.3122 78 50.5ZM54.4183 67.7632H60.4552V67.753H60.4144V33.2314H51.6882C42.9264 33.2314 38.298 37.7475 38.298 44.3865C38.298 49.6987 40.8393 52.8472 45.3554 56.0723L37.502 67.7581H43.9929L52.7191 54.669L49.6828 52.6227C45.9984 50.158 44.2175 48.2239 44.2175 44.0497C44.2175 40.3705 46.7996 37.9057 51.7291 37.9057H54.4183V67.7632Z" fill="black"/>
</svg>
