<svg width="100" height="100" viewBox="0 0 100 100" fill="none" xmlns="http://www.w3.org/2000/svg">
<path fill-rule="evenodd" clip-rule="evenodd" d="M50 100C77.6142 100 100 77.6142 100 50C100 22.3858 77.6142 0 50 0C22.3858 0 0 22.3858 0 50C0 77.6142 22.3858 100 50 100ZM50.5 78C65.6878 78 78 65.6878 78 50.5C78 35.3122 65.6878 23 50.5 23C35.3122 23 23 35.3122 23 50.5C23 65.6878 35.3122 78 50.5 78ZM60.4552 67.7632H54.4183V37.9057H51.7291C46.7996 37.9057 44.2175 40.3705 44.2175 44.0497C44.2175 48.2239 45.9984 50.158 49.6828 52.6227L52.7191 54.669L43.993 67.7581H37.502L45.3554 56.0723C40.8393 52.8472 38.298 49.6987 38.298 44.3865C38.298 37.7475 42.9264 33.2314 51.6882 33.2314H60.4144V67.753H60.4552V67.7632Z" fill="black"/>
</svg>
