<svg width="100" height="100" viewBox="0 0 100 100" fill="none" xmlns="http://www.w3.org/2000/svg">
<path d="M50.4834 27H50.4811C50.4382 27 50.3976 27 50.3592 27.0008C50.3592 27.0008 49.558 27.009 49.4941 27.009C47.4312 27.009 40.4414 27.5838 37.1433 34.9776C36.0344 37.4647 36.2999 41.6898 36.5136 45.085C36.5384 45.4852 36.5655 45.9005 36.5881 46.3022C36.4173 46.397 36.1058 46.5144 35.6153 46.5144C34.9608 46.5144 34.1867 46.3075 33.3162 45.8997C33.0853 45.7914 32.8182 45.7372 32.524 45.7372C31.5039 45.7372 30.2836 46.4083 30.0941 47.4089C29.9571 48.1288 30.2791 49.1798 32.5948 50.0946C32.8039 50.1774 33.0552 50.2571 33.32 50.3407C34.2769 50.6446 35.7229 51.1035 36.1149 52.0273C36.318 52.5066 36.2367 53.1227 35.8741 53.8585C35.8658 53.875 35.8583 53.8916 35.8508 53.9089C35.7236 54.2053 32.6632 61.1815 25.8683 62.3002C25.3454 62.3868 24.9723 62.8524 25.0016 63.3813C25.0106 63.5386 25.0475 63.695 25.1122 63.847C25.6223 65.0394 27.7739 65.9129 31.6905 66.5207C31.8214 66.6975 31.9575 67.3235 32.0411 67.7041C32.1231 68.0803 32.2073 68.4677 32.3277 68.877C32.4458 69.2795 32.7527 69.7595 33.5404 69.7595C33.8587 69.7595 34.2348 69.6857 34.6696 69.6007C35.3219 69.4736 36.2157 69.2991 37.3344 69.2991C37.9543 69.2991 38.5975 69.3532 39.2452 69.46C40.5091 69.6707 41.5834 70.4298 42.8263 71.3085C44.607 72.5679 46.624 73.9935 49.6897 73.9935C49.7739 73.9935 49.8582 73.9913 49.9424 73.9845C50.0418 73.989 50.1712 73.9935 50.3088 73.9935C53.3753 73.9935 55.3915 72.5679 57.1715 71.3092C58.4173 70.429 59.4909 69.6699 60.7548 69.46C61.401 69.3525 62.0442 69.2991 62.6649 69.2991C63.7324 69.2991 64.5765 69.4345 65.3296 69.5819C65.8013 69.6745 66.1812 69.7211 66.4588 69.7211L66.4882 69.7219H66.5168C67.0991 69.7219 67.5098 69.4142 67.6731 68.8559C67.7912 68.4557 67.8754 68.0773 67.9597 67.6951C68.0425 67.3152 68.1786 66.6923 68.3088 66.5162C72.2268 65.9084 74.3777 65.0357 74.8863 63.8485C74.9517 63.6965 74.9894 63.5386 74.9984 63.3806C75.0277 62.8517 74.6546 62.386 74.1317 62.3002C67.3338 61.18 64.2756 54.2046 64.1485 53.9089C64.1409 53.8916 64.1334 53.875 64.1251 53.8585C63.7625 53.1227 63.682 52.5066 63.8852 52.0281C64.2771 51.1035 65.7231 50.6446 66.6793 50.3414C66.9471 50.2564 67.1984 50.1766 67.4052 50.0946C69.1002 49.4251 69.9503 48.6035 69.9323 47.6519C69.918 46.9041 69.3357 46.2375 68.4103 45.9065L68.4073 45.9057C68.0959 45.7763 67.7265 45.7064 67.3646 45.7064C67.1171 45.7064 66.75 45.7402 66.4077 45.9005C65.6019 46.2781 64.8775 46.4835 64.2523 46.5114C63.8378 46.4918 63.5669 46.388 63.4127 46.3022C63.4323 45.9576 63.4541 45.6033 63.4774 45.2324L63.4864 45.0887C63.7008 41.6913 63.9672 37.4632 62.8567 34.9738C59.5571 27.5755 52.5522 27 50.4834 27Z" fill="black"/>
</svg>
