<svg width="100" height="100" viewBox="0 0 100 100" fill="none" xmlns="http://www.w3.org/2000/svg">
<path fill-rule="evenodd" clip-rule="evenodd" d="M66.4894 48.3468C67.4789 47.9322 68.5637 47.7027 69.701 47.7027C74.2865 47.7027 78.0008 51.4194 78.0008 56.0033C78.0008 60.5888 74.2865 64.2619 69.701 64.2619C69.701 64.2619 46.7122 64.265 46.6916 64.2619C46.196 64.2126 45.8021 63.8179 45.795 63.3104V36.9664C45.8021 36.4819 45.9673 36.2318 46.5939 35.9895C48.2068 35.3661 50.0326 35 51.9061 35C59.5555 35 65.8294 40.8673 66.4894 48.3468ZM43.1663 37.0752C43.0297 36.9902 42.87 36.9441 42.7001 36.9441C42.4833 36.9441 42.2824 37.0219 42.1251 37.153C41.921 37.3206 41.79 37.5731 41.7876 37.8542L41.7852 37.9495L41.412 56.5537L41.6026 59.9924L41.7884 63.3406C41.794 63.8354 42.2037 64.2452 42.7001 64.2452C43.198 64.2452 43.6078 63.8354 43.615 63.3327V63.3398L44.0192 56.5529L43.615 37.8534C43.6102 37.5239 43.4291 37.2324 43.1663 37.0752ZM34.8871 40.5242C35.258 40.5242 35.5574 40.8236 35.5701 41.2048L36.0497 56.5489L35.5701 63.5884C35.5574 63.9704 35.258 64.269 34.8871 64.269C34.513 64.269 34.212 63.9696 34.2041 63.5932L33.776 56.5489L34.2041 41.2048C34.212 40.8236 34.513 40.5242 34.8871 40.5242ZM31.0513 42.3182C30.7447 42.3182 30.4945 42.5684 30.4818 42.8829L29.9895 56.5847L30.4818 63.7449C30.4945 64.057 30.7447 64.3063 31.0513 64.3063C31.353 64.3063 31.6056 64.0562 31.6183 63.7417V63.7449L32.1774 56.5847L31.6183 42.8829C31.6056 42.5684 31.353 42.3182 31.0513 42.3182ZM23.5956 49.1536C23.6115 48.9321 23.7815 48.7645 23.9903 48.7645C24.2 48.7645 24.3699 48.9321 24.3874 49.1513L25.0632 56.541L24.3874 63.6885C24.3691 63.9093 24.1992 64.0768 23.9903 64.0768C23.7815 64.0768 23.6107 63.91 23.5956 63.6885L23 56.541L23.5956 49.1536ZM27.3854 49.2418C27.6252 49.2418 27.8214 49.4324 27.8365 49.6849L28.4758 56.5418L27.8365 63.748C27.8214 64.003 27.6252 64.1967 27.3854 64.1967C27.1408 64.1967 26.947 64.003 26.9319 63.748L26.3704 56.5418L26.9319 49.6905C26.947 49.4324 27.1408 49.2418 27.3854 49.2418ZM37.9677 42.1459C37.978 41.6996 38.3282 41.3494 38.7666 41.3494C39.205 41.3494 39.5576 41.6996 39.5655 42.1451L39.9674 56.5529L39.5655 63.4836V63.478C39.5584 63.9243 39.205 64.2746 38.7666 64.2746C38.3282 64.2746 37.978 63.9235 37.97 63.4828L37.6119 56.5513L37.9677 42.1459Z" fill="black"/>
</svg>
