<svg width="100" height="100" viewBox="0 0 100 100" fill="none" xmlns="http://www.w3.org/2000/svg">
<path fill-rule="evenodd" clip-rule="evenodd" d="M43.2248 30C52.5104 30 60.1465 37.0785 61.0435 46.1213C65.5763 47.1149 68.9702 51.139 68.9702 55.9635C68.9702 61.5157 64.4364 66.0247 58.8851 66.0247H28.0484C21.406 66.0247 16 60.6187 16 54.0002C16 47.964 20.485 42.9693 26.2792 42.1211C28.7274 34.946 35.54 30 43.2248 30ZM28.0484 61.5148H58.8851C61.9405 61.5148 64.4613 59.0179 64.4364 55.9396C64.4364 53.588 62.9571 51.576 60.8723 50.7756C60.727 51.6965 60.5089 52.5935 60.2182 53.4905C59.9027 54.4353 59.0305 55.0416 58.0847 55.0416C57.8667 55.0416 57.6238 54.9929 57.3818 54.9202C56.1941 54.508 55.563 53.2476 55.9512 52.0599C56.4122 50.702 56.6302 49.2962 56.6302 47.8656C56.6302 40.4954 50.618 34.4832 43.2239 34.4832C37.9155 34.4832 33.1636 37.6351 31.0301 42.3382C33.1149 42.8718 35.0303 43.939 36.5814 45.4901C37.4545 46.3871 37.4545 47.8168 36.5814 48.6899C35.6844 49.563 34.2547 49.563 33.3817 48.6899C31.9511 47.2593 30.0604 46.4837 28.0484 46.4837C23.8789 46.4837 20.5089 49.8537 20.5089 53.9993C20.5089 58.1448 23.9028 61.5148 28.0484 61.5148ZM79.9041 42.9215C79.2013 41.9031 77.8194 41.6124 76.777 42.3152C75.7586 42.9942 75.4679 44.4 76.1708 45.4423C78.2555 48.5455 79.3466 52.1823 79.3466 55.9635C79.3466 59.7447 78.2555 63.3815 76.1708 66.4847C75.4918 67.5031 75.7586 68.9089 76.801 69.6118C77.1883 69.8786 77.6253 70 78.0614 70C78.7882 70 79.492 69.6606 79.9041 69.0074C82.4976 65.1525 83.8556 60.6436 83.8556 55.9644C83.8556 51.2853 82.4986 46.7763 79.9041 42.9215ZM73.4573 46.5821C72.7544 45.5397 71.3726 45.2729 70.3302 45.9758C69.2878 46.6787 69.021 48.0606 69.7239 49.1029C71.1058 51.1389 71.8335 53.5153 71.8335 55.9634C71.8335 58.4364 71.1058 60.787 69.7239 62.8239C69.021 63.8414 69.2878 65.2481 70.3302 65.951C70.7175 66.2178 71.1545 66.3392 71.5906 66.3392C72.3183 66.3392 73.0452 65.9997 73.4573 65.3465C75.3488 62.5828 76.3425 59.3343 76.3425 55.9643C76.3425 52.6183 75.3479 49.3697 73.4573 46.5821Z" fill="black"/>
</svg>
