<svg width="100" height="100" viewBox="0 0 100 100" fill="none" xmlns="http://www.w3.org/2000/svg">
<path d="M33 23C30.2375 23 28 25.2375 28 28V73C28 75.7625 30.2375 78 33 78C35.7625 78 38 75.7625 38 73V67.5703L43.5957 61.9746L52.873 75.5977C54.3105 77.9552 57.3832 78.7026 59.7432 77.2676C62.1007 75.8301 62.8481 72.7598 61.4131 70.4023L50.8711 54.6992L58.1758 47.3945C60.1283 45.442 60.1283 42.2767 58.1758 40.3242C56.2233 38.3717 53.058 38.3717 51.1055 40.3242L38 53.4297V28C38 25.2375 35.7625 23 33 23ZM68 53C66.6739 53 65.4021 53.5268 64.4645 54.4645C63.5268 55.4021 63 56.6739 63 58C63 59.3261 63.5268 60.5979 64.4645 61.5355C65.4021 62.4732 66.6739 63 68 63C69.3261 63 70.5979 62.4732 71.5355 61.5355C72.4732 60.5979 73 59.3261 73 58C73 56.6739 72.4732 55.4021 71.5355 54.4645C70.5979 53.5268 69.3261 53 68 53Z" fill="black"/>
</svg>
