<svg width="100" height="100" viewBox="0 0 100 100" fill="none" xmlns="http://www.w3.org/2000/svg">
<path fill-rule="evenodd" clip-rule="evenodd" d="M50 100C77.6142 100 100 77.6142 100 50C100 22.3858 77.6142 0 50 0C22.3858 0 0 22.3858 0 50C0 77.6142 22.3858 100 50 100ZM27.031 42.5338L25 39.8703C25 39.8703 33.5043 29.7153 39.9743 28.4449C45.3357 27.3925 46.502 34.4173 47.5428 40.6862C47.8341 42.4403 48.1155 44.1353 48.4762 45.5775C50.0729 51.9585 51.1444 55.6092 52.5382 55.6092C53.9344 55.6092 56.6002 52.0507 59.5182 46.5958C62.441 41.1352 59.3925 36.3119 53.6798 39.7414C55.9662 26.0336 77.5434 22.7377 74.7511 38.4718C71.9564 54.2106 56.3464 67.5382 51.652 70.5819C46.9552 73.6256 42.672 69.364 41.1191 66.1396C40.2982 64.4428 38.7213 59.2851 37.1236 54.0597C35.2593 47.9619 33.3667 41.772 32.6149 40.883C31.2187 39.2323 27.031 42.5338 27.031 42.5338Z" fill="black"/>
</svg>
