<svg width="100" height="100" viewBox="0 0 100 100" fill="none" xmlns="http://www.w3.org/2000/svg">
<path fill-rule="evenodd" clip-rule="evenodd" d="M50 100C77.6142 100 100 77.6142 100 50C100 22.3858 77.6142 0 50 0C22.3858 0 0 22.3858 0 50C0 77.6142 22.3858 100 50 100ZM45.6989 48.4155C46.7439 47.8835 47.5332 47.2934 48.0675 46.6452C49.0281 45.4892 49.5049 43.9672 49.5049 42.0649C49.5049 40.2215 49.0341 38.6354 48.0826 37.3141C46.4972 35.159 43.8124 34.0619 40.0252 34H25V65.1113H39.011C40.5873 65.1113 42.0512 64.9702 43.4034 64.691C44.7511 64.4118 45.9237 63.8904 46.9145 63.129C47.7943 62.471 48.5263 61.6538 49.1156 60.6857C50.0422 59.2226 50.498 57.567 50.498 55.7213C50.498 53.9367 50.0935 52.4163 49.2854 51.1644C48.4825 49.908 47.282 48.9957 45.6989 48.4155ZM32.1745 39.4035H37.9652C39.4532 39.4035 40.6794 39.5688 41.6377 39.8902C42.753 40.352 43.3091 41.3126 43.3091 42.7599C43.3091 44.0699 42.8896 44.9821 42.0474 45.4953C41.2046 46.0091 40.1112 46.2664 38.7582 46.2664H32.1753H32.1745V39.4035ZM41.9003 59.1629C41.1457 59.5319 40.1006 59.7085 38.7499 59.7085H32.1753V51.4172H38.8533C40.1867 51.43 41.2272 51.6036 41.9644 51.9446C43.2827 52.5445 43.9429 53.6613 43.9429 55.2776C43.9429 57.1935 43.2608 58.4846 41.9003 59.1629ZM70.154 35.2919V38.4038H70.1533H57.625V35.2919H70.154ZM73.0253 45.607C73.9391 46.9335 74.5277 48.4683 74.8016 50.216C74.9533 51.2339 75.0212 52.7106 74.9933 54.6408H58.7676C58.8573 56.8804 59.63 58.4469 61.0969 59.3426C61.9813 59.9047 63.0536 60.1794 64.3092 60.1794C65.6327 60.1794 66.7118 59.8444 67.5425 59.157C67.9953 58.7925 68.3945 58.2779 68.7393 57.6282H74.6869C74.5315 58.951 73.8154 60.2926 72.528 61.6561C70.5345 63.8233 67.738 64.9099 64.1469 64.9099C61.1807 64.9099 58.5661 63.9938 56.2963 62.1677C54.0348 60.3349 52.8984 57.3633 52.8984 53.2403C52.8984 49.3746 53.9186 46.4151 55.965 44.3559C58.019 42.2921 60.6698 41.2651 63.9379 41.2651C65.8749 41.2651 67.6203 41.6115 69.1785 42.3072C70.7314 43.0037 72.0142 44.1001 73.0253 45.607ZM60.4616 47.347C59.6338 48.1922 59.1192 49.3421 58.9079 50.797H68.9483C68.8389 49.2486 68.322 48.076 67.3909 47.2754C66.4673 46.4717 65.3143 46.0688 63.9379 46.0688C62.4401 46.0688 61.2833 46.4996 60.4616 47.347Z" fill="black"/>
</svg>
