<svg width="100" height="100" viewBox="0 0 100 100" fill="none" xmlns="http://www.w3.org/2000/svg">
<path fill-rule="evenodd" clip-rule="evenodd" d="M50 100C77.6142 100 100 77.6142 100 50C100 22.3858 77.6142 0 50 0C22.3858 0 0 22.3858 0 50C0 77.6142 22.3858 100 50 100ZM28 28C28 25.2375 30.2375 23 33 23C35.7625 23 38 25.2375 38 28V53.4297L51.1055 40.3242C53.058 38.3717 56.2233 38.3717 58.1758 40.3242C60.1283 42.2767 60.1283 45.442 58.1758 47.3945L50.8711 54.6992L61.4131 70.4023C62.8481 72.7598 62.1007 75.8301 59.7432 77.2676C57.3832 78.7026 54.3105 77.9552 52.873 75.5977L43.5957 61.9746L38 67.5703V73C38 75.7625 35.7625 78 33 78C30.2375 78 28 75.7625 28 73V28ZM64.4645 54.4645C65.4021 53.5268 66.6739 53 68 53C69.3261 53 70.5979 53.5268 71.5355 54.4645C72.4732 55.4021 73 56.6739 73 58C73 59.3261 72.4732 60.5979 71.5355 61.5355C70.5979 62.4732 69.3261 63 68 63C66.6739 63 65.4021 62.4732 64.4645 61.5355C63.5268 60.5979 63 59.3261 63 58C63 56.6739 63.5268 55.4021 64.4645 54.4645Z" fill="black"/>
</svg>
