<svg width="100" height="100" viewBox="0 0 100 100" fill="none" xmlns="http://www.w3.org/2000/svg">
<path d="M35.6446 23C29.7954 23 25 27.7954 25 33.6446V61.8673C25 67.7165 29.7954 72.5119 35.6446 72.5119H44.4832L48.8155 77.5671C48.9317 77.7028 49.076 77.8118 49.2383 77.8866C49.4007 77.9613 49.5773 78 49.756 78C49.9347 78 50.1113 77.9613 50.2736 77.8866C50.436 77.8118 50.5802 77.7028 50.6964 77.5671L55.0287 72.5119H63.8673C69.7165 72.5119 74.5119 67.7165 74.5119 61.8673V33.6446C74.5119 27.7954 69.7165 23 63.8673 23H35.6446ZM44.8048 30.4268C45.4856 30.4268 46.0426 30.9838 46.0426 31.6646V35.378H53.4694V31.6646C53.4694 30.9838 54.0264 30.4268 54.7072 30.4268C55.3879 30.4268 55.945 30.9838 55.945 31.6646V35.378H59.6583C60.3391 35.378 60.8961 35.935 60.8961 36.6158C60.8961 37.2966 60.3391 37.8536 59.6583 37.8536H55.945V45.2804H59.6583C60.3391 45.2804 60.8961 45.8374 60.8961 46.5182C60.8961 47.199 60.3391 47.756 59.6583 47.756H55.945V51.4694C55.945 52.1501 55.3879 52.7072 54.7072 52.7072C54.0264 52.7072 53.4694 52.1501 53.4694 51.4694V47.756H46.0426V51.4694C46.0426 52.1501 45.4856 52.7072 44.8048 52.7072C44.124 52.7072 43.567 52.1501 43.567 51.4694V47.756H39.8536C39.1728 47.756 38.6158 47.199 38.6158 46.5182C38.6158 45.8374 39.1728 45.2804 39.8536 45.2804H43.567V37.8536H39.8536C39.1728 37.8536 38.6158 37.2966 38.6158 36.6158C38.6158 35.935 39.1728 35.378 39.8536 35.378H43.567V31.6646C43.567 30.9838 44.124 30.4268 44.8048 30.4268ZM46.0426 37.8536V45.2804H53.4694V37.8536H46.0426ZM34.7501 52.7192C35.2288 52.6566 35.7155 52.8804 35.9661 53.3261C38.8997 58.3639 44.0497 61.3717 49.756 61.3717C55.4498 61.3717 60.5999 58.3639 63.5458 53.3261C63.8924 52.7319 64.6467 52.5346 65.2284 52.8812C65.8226 53.2154 66.0199 53.9821 65.6733 54.5639C62.2941 60.3815 56.3411 63.8473 49.756 63.8473C43.1585 63.8473 37.2055 60.3815 33.8387 54.5639C33.4921 53.9697 33.6893 53.2154 34.2835 52.8812C34.432 52.7946 34.5905 52.7401 34.7501 52.7192Z" fill="black"/>
</svg>
