<svg width="100" height="100" viewBox="0 0 100 100" fill="none" xmlns="http://www.w3.org/2000/svg">
<path fill-rule="evenodd" clip-rule="evenodd" d="M46.8806 23.0243C43.0704 23.4289 40.128 24.116 37.2214 25.2798C25.6 29.9329 19.2053 40.1669 21.4426 50.5321C22.8591 57.0944 27.6787 62.9009 34.5986 66.3821C37.0997 67.6403 40.3633 68.7387 43.0611 69.2303C46.0211 69.7696 46.6436 69.9714 47.2655 70.5932C47.8284 71.1563 47.87 72.315 47.4267 75.0892C47.2609 76.1267 47.1621 77.0873 47.2041 77.2545C47.4745 78.3319 48.7082 78.2434 51.0794 76.9765C54.3576 75.2249 59.853 71.5782 63.8643 68.4924C67.6402 65.5878 71.1719 62.3257 73.2147 59.8561C78.0346 54.029 79.5672 47.775 77.7804 41.2244C75.4941 32.8421 67.493 26.0198 57.2718 23.7373C54.856 23.1978 53.4142 23.0475 50.3069 23.0112C48.6696 22.9921 47.1277 22.998 46.8806 23.0243ZM33.4668 39.7531C33.6518 39.8487 33.9019 40.0889 34.0224 40.2868C34.2316 40.6297 34.2418 40.887 34.2422 45.842L34.2426 51.0376L36.3489 51.0383C37.5075 51.0386 38.6351 51.0888 38.8549 51.1498C40.102 51.4964 40.3578 53.1838 39.2642 53.8505C38.9288 54.0551 38.679 54.0699 35.5493 54.0703L32.1941 54.0707L31.769 53.6457C31.416 53.2925 31.3315 53.1168 31.2696 52.6066C31.2287 52.2688 31.2111 49.4373 31.2304 46.3143C31.263 41.0656 31.2809 40.6128 31.4683 40.327C31.9137 39.6474 32.781 39.3985 33.4668 39.7531ZM43.5772 39.7531C43.7622 39.8487 44.0123 40.0889 44.1328 40.2868C44.3435 40.6321 44.3522 40.8958 44.3526 46.9224L44.353 53.1984L43.9169 53.6346C43.5214 54.0301 43.426 54.0707 42.8926 54.0707C42.3592 54.0707 42.2639 54.0301 41.8683 53.6346L41.4322 53.1984V46.9449C41.4322 40.0438 41.4126 40.2427 42.1398 39.7993C42.5732 39.535 43.1213 39.5173 43.5772 39.7531ZM48.6789 39.7556C48.9601 39.889 49.7859 40.9336 52.066 44.0401L55.0813 48.148L55.1374 44.341C55.1881 40.91 55.2137 40.5045 55.3968 40.2347C55.862 39.5495 56.9947 39.3936 57.5744 39.935C58.1853 40.5056 58.1705 40.3356 58.1705 46.8304C58.1705 52.2275 58.151 52.8985 57.9829 53.2525C57.6228 54.0116 56.5937 54.3086 55.8676 53.863C55.6714 53.7426 54.3106 51.9845 52.6098 49.6539C51.0034 47.4528 49.6511 45.6503 49.6048 45.6486C49.5585 45.6468 49.5205 47.3396 49.5205 49.4104V53.1753L49.1459 53.5842C48.8183 53.9416 48.6913 53.9996 48.1354 54.0456C47.5158 54.0971 47.4885 54.0871 47.0498 53.6484L46.5998 53.1984V46.9449C46.5998 40.0438 46.5801 40.2427 47.3074 39.7993C47.7427 39.5338 48.182 39.5198 48.6789 39.7556ZM68.1344 39.7989C68.647 40.1115 68.8614 40.497 68.8614 41.1072C68.8614 41.7277 68.6128 42.1276 68.0483 42.4154C67.7201 42.5828 67.3347 42.6119 65.4444 42.612L63.2257 42.6123V43.9603V45.3084H65.4199C67.8566 45.3084 68.1869 45.3771 68.6106 45.9721C68.9151 46.3997 68.9479 47.2092 68.6774 47.6221C68.5762 47.7765 68.3318 48.0013 68.1344 48.1217C67.8099 48.3197 67.5572 48.3407 65.5006 48.341L63.2257 48.3415V49.6895V51.0376H65.2899C67.6172 51.0376 67.9002 51.0726 68.3251 51.4135C69.0311 51.9799 69.0404 53.0665 68.3447 53.7056L67.9472 54.0707H64.626C60.9542 54.0707 60.8316 54.0501 60.4128 53.3631C60.2023 53.018 60.1934 52.7552 60.1934 46.8249C60.1934 40.8278 60.2001 40.6354 60.4199 40.2748C60.8174 39.6229 61.0254 39.5883 64.5738 39.584C67.5534 39.5803 67.8003 39.5952 68.1344 39.7989Z" fill="black"/>
</svg>
