<svg width="100" height="100" viewBox="0 0 100 100" fill="none" xmlns="http://www.w3.org/2000/svg">
<path fill-rule="evenodd" clip-rule="evenodd" d="M50 100C77.6142 100 100 77.6142 100 50C100 22.3858 77.6142 0 50 0C22.3858 0 0 22.3858 0 50C0 77.6142 22.3858 100 50 100ZM64.5611 29.872C61.1588 26.624 56.8025 25 51.4924 25C45.1515 25 40.1499 26.8559 36.4901 30.5677C32.8303 34.2795 31 38.4038 31 42.9408C31 48.6116 32.959 52.2458 36.8779 53.8443C37.1873 53.8443 37.4448 53.8574 37.6511 53.883C37.8574 53.9086 38.0381 53.7411 38.1925 53.3805C38.3476 53.0198 38.4507 52.7492 38.5019 52.5685C38.5531 52.3878 38.6175 52.0783 38.695 51.6401C38.7718 51.202 38.8369 50.9313 38.8881 50.8281C39.0425 50.3124 38.9137 49.7974 38.5011 49.2817C37.2122 47.7352 36.5677 45.853 36.5677 43.6365C36.5677 39.8735 37.8683 36.641 40.4718 33.9343C43.0753 31.2277 46.4908 29.8743 50.7184 29.8743C54.4813 29.8743 57.4075 30.8934 59.4953 32.9292C61.583 34.965 62.6269 37.6073 62.6269 40.8553C62.6269 45.0821 61.7769 48.6915 60.0754 51.6812C58.3738 54.671 56.2085 56.1662 53.5794 56.1662C52.0329 56.1662 50.7959 55.6117 49.8676 54.5035C48.9392 53.3952 48.6562 52.0938 49.0168 50.5986C49.2231 49.7222 49.5581 48.5488 50.0219 47.0799C50.4857 45.6102 50.8595 44.3213 51.1434 43.213C51.4264 42.1048 51.5684 41.164 51.5684 40.3908C51.5684 39.153 51.2333 38.1355 50.5632 37.3359C49.8932 36.5363 48.9392 36.1369 47.7022 36.1369C46.1558 36.1369 44.8412 36.8457 43.7586 38.2635C42.6759 39.6812 42.1346 41.4471 42.1346 43.5605C42.1346 45.3644 42.444 46.8596 43.0629 48.0455L39.4287 63.7434C38.7586 66.63 38.7322 70.265 39.3511 74.6468C39.4543 75.0586 39.6606 75.1106 39.97 74.8012C42.5999 71.5012 44.3263 68.3563 45.1515 65.3666C45.4089 64.5422 46.079 61.9131 47.1617 57.4793C47.6774 58.4588 48.6058 59.3088 49.9459 60.0308C51.2861 60.7528 52.7038 61.1135 54.199 61.1135C58.7352 61.1135 62.447 59.2576 65.3344 55.5458C68.2217 51.834 69.665 47.1171 69.665 41.3943C69.665 36.9605 67.9635 33.12 64.5611 29.872Z" fill="black"/>
</svg>
