<svg width="100" height="100" viewBox="0 0 100 100" fill="none" xmlns="http://www.w3.org/2000/svg">
<path fill-rule="evenodd" clip-rule="evenodd" d="M50 100C77.6142 100 100 77.6142 100 50C100 22.3858 77.6142 0 50 0C22.3858 0 0 22.3858 0 50C0 77.6142 22.3858 100 50 100ZM23 34.4405L39.2174 24L50.5297 33.4172L34.2224 43.4963L23 34.4405ZM39.2174 62.9936L23 52.3425L34.2224 43.4965L50.5297 53.5756L39.2174 62.9936ZM50.5312 53.5756L61.8444 62.9936L78.0018 52.4624L66.8086 43.4965L50.5312 53.5756ZM61.8444 24L78.0018 34.5304L66.8086 43.4963L50.5312 33.4172L61.8444 24ZM50.5572 55.5916L39.2141 65.0096L34.3398 61.8505V65.4001L50.5572 75.1187L66.7438 65.4001V61.8505L61.8995 65.0096L50.5572 55.5916Z" fill="black"/>
</svg>
