<svg width="100" height="100" viewBox="0 0 100 100" fill="none" xmlns="http://www.w3.org/2000/svg">
<path d="M50.6039 23C38.6722 23 29 32.6722 29 44.6039C29 59.3914 45.5413 78 50.6039 78C55.3971 78 71.9392 59.1152 71.9392 44.6039C71.9392 32.6722 62.5363 23 50.6039 23ZM50.5614 57.7803C43.3346 57.7803 37.4767 51.9224 37.4767 44.6956C37.4767 41.8729 38.3706 39.2583 39.8907 37.1205C40.1414 39.8285 42.4186 41.9494 45.1921 41.9494C48.1329 41.9494 50.5172 39.5651 50.5172 36.6242C50.5172 34.59 49.376 32.8226 47.6987 31.9253C48.6198 31.7197 49.5774 31.6101 50.5614 31.6101C57.7882 31.6101 63.6461 37.468 63.6461 44.6948C63.6461 51.9216 57.7873 57.7803 50.5614 57.7803Z" fill="black"/>
</svg>
