<svg width="100" height="100" viewBox="0 0 100 100" fill="none" xmlns="http://www.w3.org/2000/svg">
<path fill-rule="evenodd" clip-rule="evenodd" d="M38.788 23.1378C35.728 23.491 34.4693 23.6898 32.9641 24.0577C31.1073 24.5114 29.3423 25.2411 28.1535 26.0463C26.4913 27.1721 25.221 28.9181 24.5051 31.0608C23.993 32.5938 23.8059 33.6142 23.3556 37.331L23.0395 39.9397L23.0198 45.0706L23 50.2015L23.2171 50.1736C23.3364 50.1582 24.1488 50.1149 25.0224 50.0772C30.0838 49.8593 32.587 49.6351 35.7768 49.1138C39.6581 48.4795 42.1895 47.531 44.2122 45.9529C44.9278 45.3947 46.0338 44.2359 46.5815 43.4707C47.1416 42.6881 47.9982 40.9813 48.3537 39.9397C49.2068 37.4392 49.4499 35.5573 49.9697 27.4248C50.0963 25.4452 50.2181 23.6398 50.2403 23.4128L50.2808 23L45.0639 23.0078C40.4462 23.0147 39.7252 23.0297 38.788 23.1378ZM50.7998 23.1156C50.7999 23.41 51.0752 28.2787 51.1667 29.6042C51.504 34.4924 52.0552 37.9379 52.865 40.2204C53.4254 41.8 54.3659 43.4233 55.4281 44.6445C56.6778 46.0812 58.5643 47.3503 60.5648 48.1002C62.7982 48.9373 65.3609 49.3029 71.6467 49.6812C73.5719 49.7971 75.0218 49.8901 77.3475 50.0472L77.9193 50.0859L77.9676 48.9954C78.0463 47.2135 77.9628 41.2476 77.8389 39.8076C77.6877 38.05 77.4393 35.9749 77.167 34.1941C76.8085 31.8498 76.5387 30.8905 75.848 29.5051C74.5246 26.8508 72.1381 25.0399 68.8376 24.1857C67.6675 23.8829 66.4116 23.6967 63.5064 23.3955C62.7967 23.322 61.9005 23.2028 61.5149 23.1309C60.8553 23.0077 60.5184 23 55.8069 23C51.0823 23 50.7998 23.0065 50.7998 23.1156ZM23.0039 55.5879V60.4384L23.3023 62.9021C23.777 66.8203 24.0298 68.2489 24.499 69.6628C25.3877 72.3415 26.8479 74.2242 28.9933 75.4581C29.8312 75.94 30.7958 76.2872 32.4346 76.6968C34.5121 77.2162 35.6697 77.3975 37.6629 77.5159C40.9279 77.7098 49.8513 78.0566 49.9159 77.9921C49.937 77.9711 49.9583 76.6075 49.9634 74.9619C49.9714 72.3192 49.9548 71.7771 49.8208 70.3189C49.3861 65.5895 48.9678 63.0245 48.3075 61.04C46.8076 56.5325 43.5655 53.5019 38.9516 52.295C37.1306 51.8185 34.8578 51.5515 29.9198 51.2341C26.8213 51.0348 25.8127 50.9609 24.4599 50.8341C23.8957 50.7812 23.3373 50.7378 23.219 50.7377L23.0039 50.7375V55.5879ZM77.2389 50.8482C77.0569 50.8597 76.2379 50.9139 75.419 50.9688C74.6 51.0236 72.962 51.1281 71.779 51.2009C65.1066 51.612 62.5196 51.99 60.3223 52.8751C55.8343 54.683 53.159 58.1552 52.0976 63.5496C51.7532 65.3001 51.5562 66.9465 51.2638 70.5183C51.0892 72.6515 51.0645 73.2592 51.0645 75.4249V77.8968L55.7799 77.8605C60.3944 77.825 61.3219 77.7913 63.4734 77.5808C65.9869 77.3349 68.6424 76.823 70.1653 76.2908C73.2165 75.2246 75.3374 73.1101 76.4035 70.0717C76.8481 68.8046 77.3416 66.4176 77.5947 64.3091C77.9137 61.6527 77.9979 59.6669 77.9991 54.7826L78 50.8035L77.7849 50.8154C77.6666 50.822 77.4209 50.8368 77.2389 50.8482Z" fill="black"/>
</svg>
