<svg width="100" height="100" viewBox="0 0 100 100" fill="none" xmlns="http://www.w3.org/2000/svg">
<path fill-rule="evenodd" clip-rule="evenodd" d="M50 100C77.6142 100 100 77.6142 100 50C100 22.3858 77.6142 0 50 0C22.3858 0 0 22.3858 0 50C0 77.6142 22.3858 100 50 100ZM25 33.0966L28.4128 24H75V55.8232L61.3601 69.455H51.133L44.3253 76.279H37.5012V69.455H25V33.0966ZM70.455 28.5434H32.9562L32.9546 61.4988H43.1817V68.3147L49.9976 61.4988H62.4971L70.455 53.5409V28.5434ZM49.9992 51.2782H45.4558V37.6399H49.9992V51.2782ZM62.489 51.2782H57.9456V37.6399H62.489V51.2782Z" fill="black"/>
</svg>
