<svg width="100" height="100" viewBox="0 0 100 100" fill="none" xmlns="http://www.w3.org/2000/svg">
<path fill-rule="evenodd" clip-rule="evenodd" d="M50 100C77.6142 100 100 77.6142 100 50C100 22.3858 77.6142 0 50 0C22.3858 0 0 22.3858 0 50C0 77.6142 22.3858 100 50 100ZM37.2386 25H66.5729C70.8805 25 72.0378 27.4545 71.0999 32.0078L69.2547 41.2209C68.9937 42.5355 68.7259 43.8868 68.4606 45.2254C67.2291 51.4391 66.0518 57.3791 65.8727 58.1026C65.8666 58.1271 65.8605 58.1518 65.8543 58.1768C65.4607 59.7663 64.8162 62.3692 61.1097 62.3692H52.1492C51.9967 62.3692 51.9089 62.3692 51.8309 62.3967C51.725 62.434 51.637 62.522 51.4298 62.7293C51.1911 62.9671 37.3426 79.0367 37.3426 79.0367C36.2639 80.2815 34.4641 80.0586 33.812 79.7937C33.1608 79.5297 32 78.729 32 76.5691V29.9615C32 28.0445 33.1905 25 37.2386 25ZM63.6088 39.3564L64.8404 32.9396C65.0615 31.8758 64.2521 31.0611 63.385 31.0593H39.8443C38.7744 31.0593 38.0611 32.0217 38.0611 32.8425V69.2117C38.0611 69.3218 38.1476 69.3507 38.235 69.2502C38.235 69.2502 46.9062 58.8369 47.8713 57.6376C48.8354 56.4392 49.2707 56.2513 50.7121 56.2513H58.6263C59.7059 56.2513 60.3142 55.3439 60.4252 54.8125C60.4787 54.5568 60.7203 53.3081 60.9784 51.974C61.256 50.5388 61.5527 49.0047 61.6551 48.5014C61.8518 47.532 60.9611 46.5364 60.0529 46.5364H50.3572C49.0705 46.5364 48.1448 45.6255 48.1448 44.3397V42.9403C48.1448 41.6562 49.0653 40.7795 50.3511 40.7795H61.7784C62.5887 40.7795 63.4619 40.0505 63.6088 39.3564Z" fill="black"/>
</svg>
