<svg width="100" height="100" viewBox="0 0 100 100" fill="none" xmlns="http://www.w3.org/2000/svg">
<path fill-rule="evenodd" clip-rule="evenodd" d="M50.8718 22.0484C62.6144 22.0996 68.2422 25.6357 69.546 26.8203C73.8783 30.5296 76.0854 39.4057 74.4715 52.4092C73.0657 63.7647 65.4481 65.5407 62.6965 66.1823C62.3913 66.2534 62.1459 66.3106 61.9755 66.3654C61.2519 66.602 54.5234 68.2718 46.0664 67.7195C46.0664 67.7195 39.7635 75.3234 37.7947 77.3006C37.4874 77.607 37.1261 77.7318 36.8849 77.6731C36.5496 77.5902 36.4565 77.1888 36.4565 76.6021C36.4621 75.763 36.5105 66.2164 36.5105 66.2164C24.6071 62.9095 24.8835 50.7808 25.0404 43.8961C25.0458 43.6594 25.0511 43.429 25.0557 43.2053C25.1944 36.474 26.4601 30.958 30.2169 27.2487C36.9668 21.1348 50.8718 22.0484 50.8718 22.0484ZM49.5781 28.6078C49.0769 28.6044 48.6677 29.0078 48.6642 29.509C48.6607 30.0102 49.0642 30.4194 49.5654 30.4229C53.7154 30.4518 57.1377 31.8173 59.8948 34.505C62.622 37.1636 64.0461 40.8319 64.0826 45.6223C64.0864 46.1235 64.4958 46.5267 64.997 46.5229C65.4982 46.5191 65.9014 46.1097 65.8976 45.6085C65.8583 40.4441 64.3079 36.2723 61.1618 33.2053C58.0456 30.1675 54.1635 28.6398 49.5781 28.6078ZM49.8069 33.504C49.8532 32.8705 50.4043 32.3946 51.0378 32.441C54.4061 32.6875 57.1547 33.8432 59.1636 36.0361L59.164 36.0365C61.1459 38.2022 62.0821 40.8952 62.0143 44.0273C62.0005 44.6623 61.4747 45.1659 60.8397 45.1522C60.2047 45.1384 59.7011 44.6125 59.7148 43.9776C59.7712 41.3729 59.0081 39.273 57.4673 37.5893C55.9373 35.9195 53.7875 34.9484 50.8699 34.7348C50.2365 34.6885 49.7605 34.1374 49.8069 33.504ZM51.2404 37.7537C51.2665 37.2532 51.6934 36.8686 52.194 36.8947C53.8346 36.9803 55.2156 37.478 56.2033 38.4993C57.1868 39.5161 57.6617 40.9296 57.7449 42.6071C57.7697 43.1077 57.384 43.5336 56.8835 43.5585C56.3829 43.5833 55.9569 43.1976 55.9321 42.697C55.8626 41.2957 55.4792 40.3613 54.8986 39.7611C54.3224 39.1653 53.4339 38.7769 52.0994 38.7073C51.5989 38.6812 51.2143 38.2542 51.2404 37.7537ZM52.301 53.1673C52.301 53.1673 53.4046 53.2604 53.9988 52.5284L55.1573 51.071C55.7161 50.3483 57.0646 49.8873 58.3851 50.623C59.3747 51.1874 60.3355 51.8009 61.2637 52.4614C61.9684 52.9796 63.2668 54.0494 63.7514 54.4486C63.8694 54.5459 63.9391 54.6033 63.9402 54.6033C64.7952 55.3251 64.9926 56.3849 64.4105 57.5024C64.4105 57.5058 64.4093 57.5104 64.4081 57.5149C64.4069 57.519 64.4059 57.523 64.4059 57.5257C63.7648 58.637 62.9509 59.6392 61.9948 60.4946C61.9889 60.4975 61.9862 60.5005 61.9834 60.5034C61.9808 60.506 61.9783 60.5087 61.9734 60.5114C61.1427 61.2055 60.3265 61.6001 59.525 61.6951C59.407 61.7157 59.2871 61.7232 59.1674 61.7174C58.8139 61.7208 58.4623 61.6667 58.1262 61.5572L58.1001 61.519C56.8653 61.1707 54.8034 60.2991 51.3698 58.4048C49.3828 57.3216 47.4911 56.072 45.715 54.6694C44.8248 53.9669 43.9756 53.2138 43.1716 52.4139L43.086 52.3282L43.0003 52.2425L42.9146 52.1568C42.8954 52.1382 42.8766 52.1193 42.8577 52.1001L42.8289 52.0712C42.029 51.2672 41.276 50.418 40.5734 49.5278C39.171 47.7519 37.9215 45.8606 36.838 43.874C34.9437 40.4394 34.0721 38.3794 33.7238 37.1427L33.6856 37.1166C33.5764 36.7805 33.5226 36.4288 33.5263 36.0754C33.5198 35.9558 33.527 35.8358 33.5478 35.7178C33.6477 34.9175 34.0429 34.1008 34.7333 33.2676C34.736 33.2627 34.7386 33.2601 34.7413 33.2576C34.7442 33.2548 34.7471 33.252 34.75 33.2462C35.6052 32.29 36.6075 31.4764 37.719 30.836C37.7217 30.836 37.7256 30.8347 37.7298 30.8334C37.7342 30.8319 37.7389 30.8304 37.7423 30.8304C38.8598 30.2484 39.9196 30.4458 40.6404 31.2961C40.646 31.3016 42.1407 33.0962 42.7824 33.9726C43.4429 34.9017 44.0564 35.8634 44.6207 36.854C45.3564 38.1736 44.8955 39.5249 44.1728 40.0818L42.7153 41.2403C41.9796 41.8345 42.0765 42.938 42.0765 42.938C42.0765 42.938 44.2352 51.1082 52.301 53.1673Z" fill="black"/>
</svg>
