<svg width="100" height="100" viewBox="0 0 100 100" fill="none" xmlns="http://www.w3.org/2000/svg">
<path fill-rule="evenodd" clip-rule="evenodd" d="M50 100C77.6142 100 100 77.6142 100 50C100 22.3858 77.6142 0 50 0C22.3858 0 0 22.3858 0 50C0 77.6142 22.3858 100 50 100ZM50.4811 27H50.4834C52.5522 27 59.5571 27.5755 62.8567 34.9738C63.9672 37.4632 63.7008 41.6913 63.4864 45.0887L63.4774 45.2324C63.4541 45.6033 63.4323 45.9576 63.4127 46.3022C63.5669 46.388 63.8378 46.4918 64.2523 46.5114C64.8775 46.4835 65.6019 46.2781 66.4077 45.9005C66.75 45.7402 67.1171 45.7064 67.3646 45.7064C67.7265 45.7064 68.0959 45.7763 68.4073 45.9057L68.4103 45.9065C69.3357 46.2375 69.918 46.9041 69.9323 47.6519C69.9503 48.6035 69.1002 49.4251 67.4052 50.0946C67.1985 50.1766 66.9474 50.2563 66.6798 50.3412L66.6793 50.3414C65.7231 50.6446 64.2771 51.1035 63.8852 52.0281C63.682 52.5066 63.7625 53.1227 64.1251 53.8585C64.1293 53.8668 64.1333 53.8752 64.1372 53.8837C64.141 53.8919 64.1447 53.9003 64.1485 53.9089C64.2756 54.2046 67.3338 61.18 74.1317 62.3002C74.6546 62.386 75.0277 62.8517 74.9984 63.3806C74.9894 63.5386 74.9517 63.6965 74.8863 63.8485C74.3777 65.0357 72.2268 65.9084 68.3088 66.5162C68.1786 66.6923 68.0425 67.3152 67.9597 67.6951C67.8754 68.0773 67.7912 68.4557 67.6731 68.8559C67.5098 69.4142 67.0991 69.7219 66.5168 69.7219H66.4882L66.4588 69.7211C66.1812 69.7211 65.8013 69.6745 65.3296 69.5819C64.5765 69.4345 63.7324 69.299 62.6649 69.299C62.0442 69.299 61.401 69.3525 60.7548 69.4601C59.492 69.6698 58.4192 70.4277 57.1747 71.307L57.1715 71.3092C55.3915 72.5679 53.3753 73.9935 50.3088 73.9935C50.1712 73.9935 50.0418 73.989 49.9424 73.9845C49.8582 73.9913 49.7739 73.9935 49.6897 73.9935C46.624 73.9935 44.607 72.5679 42.8263 71.3085C41.5834 70.4298 40.5091 69.6707 39.2452 69.4601C38.5975 69.3532 37.9543 69.299 37.3344 69.299C36.2174 69.299 35.3247 69.4731 34.6727 69.6001L34.6697 69.6007L34.6657 69.6015C34.2325 69.6862 33.8577 69.7595 33.5404 69.7595C32.7527 69.7595 32.4458 69.2795 32.3277 68.877C32.2081 68.4704 32.1241 68.0852 32.0426 67.7113L32.0411 67.7041L32.038 67.6903C31.9543 67.3085 31.8198 66.6954 31.6905 66.5207C27.7739 65.9129 25.6223 65.0394 25.1122 63.847C25.0475 63.695 25.0106 63.5386 25.0016 63.3813C24.9723 62.8524 25.3454 62.3868 25.8683 62.3002C32.6632 61.1815 35.7236 54.2053 35.8508 53.9089C35.8548 53.8998 35.8587 53.8909 35.8628 53.8821C35.8664 53.8742 35.8702 53.8663 35.8741 53.8585C36.2367 53.1227 36.318 52.5066 36.1149 52.0273C35.7231 51.1039 34.2782 50.645 33.3212 50.341L33.32 50.3407C33.0552 50.2571 32.8039 50.1774 32.5948 50.0946C30.2791 49.1798 29.9571 48.1288 30.0941 47.4089C30.2836 46.4083 31.5039 45.7372 32.524 45.7372C32.8182 45.7372 33.0853 45.7914 33.3162 45.8997C34.1867 46.3075 34.9608 46.5144 35.6153 46.5144C36.1058 46.5144 36.4173 46.397 36.5881 46.3022C36.5714 46.0064 36.5524 45.7032 36.5336 45.4041C36.5268 45.297 36.5201 45.1905 36.5136 45.085C36.2999 41.6898 36.0344 37.4647 37.1433 34.9776C40.4414 27.5838 47.4312 27.009 49.4941 27.009C49.558 27.009 50.3592 27.0008 50.3592 27.0008C50.3784 27.0004 50.3981 27.0002 50.4184 27.0001C50.4387 27 50.4596 27 50.4811 27Z" fill="black"/>
</svg>
