<svg width="100" height="100" viewBox="0 0 100 100" fill="none" xmlns="http://www.w3.org/2000/svg">
<path d="M25 39.8703L27.031 42.5338C27.031 42.5338 31.2187 39.2323 32.6149 40.883C34.011 42.5338 39.3403 62.4627 41.1191 66.1396C42.672 69.3639 46.9552 73.6256 51.652 70.5819C56.3464 67.5382 71.9564 54.2106 74.7511 38.4718C77.5434 22.7377 55.9662 26.0336 53.6798 39.7414C59.3925 36.3119 62.441 41.1352 59.5182 46.5958C56.6002 52.0507 53.9344 55.6092 52.5382 55.6092C51.1444 55.6092 50.0729 51.9585 48.4762 45.5775C46.8263 38.9809 46.8358 27.098 39.9743 28.4449C33.5043 29.7153 25 39.8703 25 39.8703Z" fill="black"/>
</svg>
