<svg width="100" height="100" viewBox="0 0 100 100" fill="none" xmlns="http://www.w3.org/2000/svg">
<path fill-rule="evenodd" clip-rule="evenodd" d="M50 100C77.6142 100 100 77.6142 100 50C100 22.3858 77.6142 0 50 0C22.3858 0 0 22.3858 0 50C0 77.6142 22.3858 100 50 100ZM73.0126 48.6277C73.1649 48.5516 73.2699 48.4991 73.3759 48.4975C73.7724 48.4925 74.1689 48.5113 74.5654 48.5301C74.7102 48.5369 74.8551 48.5438 75 48.5495C74.9766 48.7362 74.9752 48.945 74.9737 49.1539C74.9706 49.6078 74.9674 50.0616 74.7391 50.287C73.3086 51.6987 71.8388 53.1148 70.19 54.2487C68.9092 55.1291 67.5266 55.8617 66.1426 56.595L66.1425 56.5951L66.1424 56.5951C65.5403 56.9142 64.9378 57.2334 64.3434 57.565C64.4289 58.1386 64.5295 58.7152 64.6306 59.2945L64.6307 59.2948C64.8559 60.5854 65.0833 61.8888 65.1516 63.2003C65.3579 67.1569 64.4832 70.7989 61.2453 73.4537C59.1821 75.1459 56.8121 75.8544 54.1761 75.0402C52.182 74.4247 50.991 73.0265 50.8947 70.925C50.7999 68.8543 50.774 66.7801 50.7481 64.7059C50.7378 63.8868 50.7276 63.0677 50.7131 62.2488C50.7067 61.8775 50.7082 61.5057 50.7099 61.1159V61.1155V61.1153V61.1147C50.7106 60.9339 50.7114 60.7493 50.7114 60.5591C50.2135 60.4628 49.8273 60.3886 49.2766 60.2829C49.2766 61.3141 49.2815 62.3354 49.2863 63.3498V63.3505C49.2973 65.6401 49.3082 67.8944 49.2621 70.1475C49.1947 73.411 47.1785 75.365 43.9329 75.3309C40.3514 75.2926 37.8936 73.388 36.2831 70.3393C34.3462 66.6726 34.561 62.7927 35.5363 58.9393C35.8475 57.7082 35.5005 57.2556 34.4502 56.8003C31.1799 55.3842 28.2054 53.5019 25.7612 50.8624C25.6974 50.7936 25.6259 50.7252 25.5539 50.6562C25.345 50.4562 25.131 50.2513 25.0834 50.0167C24.9828 49.5188 24.9334 48.882 25.1712 48.4941C25.2918 48.298 25.8841 48.3568 26.3425 48.4024C26.4062 48.4087 26.4673 48.4148 26.5242 48.4199C26.6829 48.4338 26.8347 48.5238 27.0416 48.6466C27.1527 48.7125 27.2797 48.7878 27.4322 48.8658V47.2409C27.4322 45.5334 27.4315 43.8259 27.4309 42.1183V42.1182V42.1181C27.4293 37.9438 27.4277 33.7693 27.4356 29.5952C27.4424 25.8278 29.2668 24.0026 33 24.0017C44.304 23.9991 55.607 24 66.911 24.0009H66.9116H66.9122H66.9129C70.8558 24.0017 72.6956 25.8526 72.7007 29.8509C72.7075 34.3363 72.7063 38.8226 72.7051 43.3765V43.3808V43.393C72.7046 45.1746 72.7041 46.9666 72.7041 48.7729C72.8274 48.7203 72.9274 48.6703 73.0126 48.6277ZM58.7277 53.4678C62.4073 53.4013 65.8881 52.5163 69.213 50.9383C69.9846 50.5726 70.2548 50.1395 70.2488 49.2759C70.2199 45.3502 70.2224 41.4246 70.2248 37.499V37.4863C70.226 35.6258 70.2272 33.7652 70.225 31.9047C70.2199 27.5099 69.3545 26.6369 65.0075 26.6352C55.0815 26.6318 45.1546 26.6326 35.2286 26.6377C34.5857 26.6377 33.9412 26.6616 33.3018 26.717C31.2131 26.8978 30.2907 27.7571 30.2591 29.8509C30.1585 36.4649 30.1159 43.0805 30.1202 49.6944C30.1202 50.1292 30.6019 50.7576 31.0239 50.9681C34.7486 52.8266 38.7248 53.605 42.8758 53.4942C43.1435 53.4871 43.4122 53.4766 43.6808 53.4661L43.6815 53.4661C46.2185 53.3669 48.7536 53.2678 50.552 56.0305C51.3653 53.8829 51.8802 53.5061 53.7651 53.4788C54.5566 53.4674 55.3482 53.4712 56.1399 53.475C57.0026 53.4792 57.8653 53.4833 58.7277 53.4678ZM37.0394 45.3013C37.0053 42.1137 39.7155 39.4956 43.0966 39.4504C46.4462 39.4061 49.2698 42.0114 49.2954 45.17C49.3209 48.3636 46.6218 50.9638 43.2271 51.0167C39.874 51.0687 37.0735 48.4821 37.0394 45.3013ZM57.518 39.4529C54.1241 39.4998 51.4258 42.0949 51.4454 45.2928C51.465 48.4591 54.2733 51.0584 57.6314 51.0201C61.0185 50.9809 63.7236 48.3755 63.6946 45.1794C63.6665 41.9986 60.8702 39.4069 57.518 39.4529Z" fill="black"/>
</svg>
