<svg width="100" height="100" viewBox="0 0 100 100" fill="none" xmlns="http://www.w3.org/2000/svg">
<path fill-rule="evenodd" clip-rule="evenodd" d="M40.6716 23.0275C38.043 23.2887 36.4339 23.5833 34.5868 24.1414C26.9674 26.4434 21.2483 31.8868 19.5444 38.4585C18.046 44.2386 19.6752 50.169 24.0048 54.6934C24.6717 55.3903 25.6317 56.2925 26.1379 56.6981L27.0584 57.4357L26.0055 59.5254C25.0658 61.3903 24.952 61.6891 24.947 62.3035C24.9424 62.8656 25.0017 63.0709 25.2704 63.4232C25.6528 63.9246 26.2819 64.258 26.8458 64.258C27.0786 64.258 28.7297 63.6243 30.8497 62.7214C32.8339 61.8763 34.5281 61.1849 34.6144 61.185C34.7007 61.1851 35.3244 61.3189 36.0005 61.4825C37.4159 61.8248 39.6623 62.1283 41.7606 62.2607L43.2183 62.3527L43.4996 63.0902C45.1644 67.4562 49.3386 71.1325 54.6481 72.9091C57.7291 73.9398 61.3402 74.3196 64.569 73.9524L65.7956 73.813L70.741 75.9329C75.1862 77.8382 75.7402 78.0467 76.2174 77.9928C77.1861 77.8837 77.9792 76.9951 77.9792 76.0189C77.9792 75.7146 77.5754 74.7746 76.6185 72.8513L75.2579 70.1163L75.6644 69.7993C78.5 67.5878 80.3067 65.1621 81.2116 62.3527C81.7169 60.7835 81.838 59.999 81.838 58.2962C81.838 56.6485 81.7145 55.8034 81.2717 54.424C79.7638 49.726 75.3791 45.7046 69.7432 43.8511C68.9657 43.5954 67.8456 43.2861 67.254 43.1639L66.1784 42.9417L66.1777 42.26C66.1767 41.3454 65.8669 39.3418 65.5503 38.2026C63.388 30.4221 55.7431 24.4945 46.2032 23.2018C45.1612 23.0606 41.4995 22.9452 40.6716 23.0275ZM44.8073 27.013C52.1089 27.7241 58.2615 31.5387 60.9208 37.0034C61.6424 38.4863 62.0252 39.8922 62.1846 41.6448L62.2689 42.5718L60.4643 42.7211C55.2105 43.1558 50.6569 45.0419 47.3302 48.1614C44.4896 50.8248 42.9595 53.837 42.6348 57.4046L42.5482 58.3569L41.4869 58.2878C39.7977 58.178 37.1695 57.7643 35.9906 57.4225C34.5116 56.9938 34.1294 57.0176 32.743 57.6254C32.1007 57.9069 31.4547 58.1839 31.3075 58.241L31.0398 58.3448L31.274 57.8288C31.6009 57.1091 31.5843 56.2861 31.2325 55.7637C31.0778 55.5339 30.4014 54.9588 29.7294 54.4855C27.3339 52.7987 25.3063 50.4624 24.1871 48.0997C23.3013 46.2296 22.9983 44.8767 22.9883 42.7462C22.9731 39.4725 23.7681 37.1654 25.8728 34.3771C29.7177 29.2838 37.4088 26.2924 44.8073 27.013ZM33.772 35.0627C33.1065 35.4616 32.821 36.0575 32.8911 36.9021C32.921 37.2626 33.0471 37.6814 33.1814 37.8667C33.4734 38.2694 34.2939 38.6907 34.7793 38.687C35.3727 38.6826 36.1215 38.2681 36.4259 37.7755C37.0311 36.7963 36.6525 35.4484 35.6434 34.9902C34.9551 34.6776 34.3771 34.6999 33.772 35.0627ZM49.5852 35.0358C48.8635 35.4173 48.5723 35.9707 48.6295 36.8514C48.6826 37.6692 48.9584 38.0978 49.6532 38.442C50.2706 38.7481 50.7261 38.7517 51.3777 38.4557C52.0487 38.1509 52.4393 37.5136 52.4393 36.7229C52.4393 35.9323 52.0487 35.2949 51.3777 34.9902C50.7079 34.6859 50.2234 34.6982 49.5852 35.0358ZM65.7482 46.8638C69.2842 47.491 72.2824 48.9144 74.4961 51.0174C75.6668 52.1295 76.4211 53.1328 77.0108 54.3626C77.6945 55.7885 77.9044 56.7091 77.9076 58.2962C77.9111 59.9623 77.6564 61.0538 76.9333 62.4707C75.9615 64.3755 74.7097 65.7134 72.5385 67.1686C71.1637 68.09 70.831 68.4856 70.7596 69.2829C70.7164 69.7654 70.7925 70.0218 71.264 70.9825C71.7628 71.9987 71.7918 72.1033 71.5495 72.0094C71.4011 71.952 70.2564 71.4636 69.0057 70.9241C67.7549 70.3845 66.6139 69.9071 66.4702 69.863C66.3264 69.8188 65.5259 69.8672 64.6914 69.9705C62.7844 70.2067 61.4076 70.2082 59.639 69.9761C55.7243 69.4625 52.4085 67.9918 49.9936 65.6978C48.8228 64.5857 48.0686 63.5824 47.4789 62.3527C46.7836 60.9026 46.5836 60.0105 46.5836 58.3576C46.5836 56.7048 46.7836 55.8126 47.4789 54.3626C49.3711 50.4167 53.9055 47.5425 59.5106 46.7366C61.0003 46.5223 64.1895 46.5874 65.7482 46.8638ZM55.4353 52.7358C54.7618 53.122 54.4744 53.6987 54.5299 54.5525C54.583 55.3703 54.8588 55.7989 55.5536 56.1431C56.171 56.4492 56.6264 56.4528 57.2781 56.1568C58.7036 55.5093 58.7036 53.3387 57.2781 52.6913C56.6092 52.3875 56.018 52.4018 55.4353 52.7358ZM67.2074 52.7638C66.5419 53.1627 66.2565 53.7586 66.3265 54.6033C66.3564 54.9637 66.4825 55.3825 66.6169 55.5678C66.9088 55.9705 67.7294 56.3918 68.2148 56.3881C68.8081 56.3837 69.557 55.9692 69.8614 55.4766C70.4665 54.4974 70.0879 53.1496 69.0788 52.6913C68.3906 52.3787 67.8126 52.4011 67.2074 52.7638Z" fill="black"/>
</svg>
