<svg width="100" height="100" viewBox="0 0 100 100" fill="none" xmlns="http://www.w3.org/2000/svg">
<path fill-rule="evenodd" clip-rule="evenodd" d="M50 100C77.6142 100 100 77.6142 100 50C100 22.3858 77.6142 0 50 0C22.3858 0 0 22.3858 0 50C0 77.6142 22.3858 100 50 100ZM54.0233 49.6184C54.0233 40.9929 47.0789 34 38.5119 34C29.9449 34 23 40.9929 23 49.6184C23 58.2439 29.9454 65.2362 38.5119 65.2362C47.0784 65.2362 54.0233 58.2439 54.0233 49.6184ZM71.0393 49.6184C71.0393 41.4972 67.5668 34.9149 63.2833 34.9149C58.9998 34.9149 55.5279 41.4993 55.5279 49.6184C55.5279 57.7374 59.0004 64.3219 63.2839 64.3219C67.5674 64.3219 71.0398 57.7374 71.0398 49.6184H71.0393ZM78 49.6184C78 42.3436 76.7784 36.4464 75.2722 36.4464C73.766 36.4464 72.545 42.3441 72.545 49.6184C72.545 56.8926 73.7655 62.7904 75.2722 62.7904C76.7789 62.7904 78 56.8911 78 49.6184Z" fill="black"/>
</svg>
