<svg width="100" height="100" viewBox="0 0 100 100" fill="none" xmlns="http://www.w3.org/2000/svg">
<path fill-rule="evenodd" clip-rule="evenodd" d="M50 100C77.6142 100 100 77.6142 100 50C100 22.3858 77.6142 0 50 0C22.3858 0 0 22.3858 0 50C0 77.6142 22.3858 100 50 100ZM25 31.2501C25 27.8001 27.798 25 31.2501 25H68.7499C72.1999 25 75 27.798 75 31.2501V68.7499C75 72.1999 72.202 75 68.7499 75H31.2501C27.8001 75 25 72.202 25 68.7499V31.2501ZM43.7504 67.1886C45.4065 67.1886 46.7494 65.8457 46.7494 64.1906V35.8104C46.7494 34.1543 45.4065 32.8124 43.7504 32.8124H34.4992C32.843 32.8124 31.5001 34.1553 31.5001 35.8104V64.1906C31.5001 65.8467 32.843 67.1886 34.4992 67.1886H43.7504ZM65.5008 54.6873C67.157 54.6873 68.4999 53.3445 68.4999 51.6863V35.8135C68.4999 34.1563 67.157 32.8124 65.5008 32.8124H56.2496C54.5935 32.8124 53.2506 34.1553 53.2506 35.8135V51.6863C53.2506 53.3434 54.5935 54.6873 56.2496 54.6873H65.5008Z" fill="black"/>
</svg>
