<svg width="100" height="100" viewBox="0 0 100 100" fill="none" xmlns="http://www.w3.org/2000/svg">
<path fill-rule="evenodd" clip-rule="evenodd" d="M50 100C77.6142 100 100 77.6142 100 50C100 22.3858 77.6142 0 50 0C22.3858 0 0 22.3858 0 50C0 77.6142 22.3858 100 50 100ZM35.2342 62.4685C41.991 62.4685 47.4685 56.991 47.4685 50.2342C47.4685 43.4775 41.991 38 35.2342 38C28.4775 38 23 43.4775 23 50.2342C23 56.991 28.4775 62.4685 35.2342 62.4685ZM65.7655 62.4685C72.5223 62.4685 77.9997 56.991 77.9997 50.2342C77.9997 43.4775 72.5223 38 65.7655 38C59.0087 38 53.5312 43.4775 53.5312 50.2342C53.5312 56.991 59.0087 62.4685 65.7655 62.4685Z" fill="black"/>
</svg>
