<svg width="100" height="100" viewBox="0 0 100 100" fill="none" xmlns="http://www.w3.org/2000/svg">
<path d="M61.0967 54.8771L67.3231 61.1012L50.4725 77.9519L33.6242 61.1035L39.8506 54.8771L50.4748 65.5562L61.0967 54.8771ZM71.7231 44.2529L78 50.4771L71.7781 56.7012L65.5517 50.4771L71.7231 44.2529ZM50.4748 44.2529L56.699 50.4221L50.4725 56.6485L44.2483 50.4771L50.4725 44.2552L50.4748 44.2529ZM29.2242 44.2529L35.3979 50.4771L29.2288 56.6462L23 50.4771L29.2242 44.2529ZM50.4771 23L67.3254 39.7979L61.099 46.0198L50.4748 35.3956L39.8529 46.0748L33.6265 39.8506L50.4748 23.0023L50.4771 23Z" fill="black"/>
</svg>
