<svg width="100" height="100" viewBox="0 0 100 100" fill="none" xmlns="http://www.w3.org/2000/svg">
<path d="M65.7671 46.3793C56.9027 41.1149 42.2811 40.6309 33.8189 43.1992C32.4596 43.6115 31.0228 42.8446 30.6112 41.4855C30.1994 40.1258 30.9656 38.6897 32.3254 38.2767C42.0397 35.3281 58.1876 35.8975 68.3925 41.9552C69.6151 42.681 70.0155 44.2595 69.2912 45.4796C68.5661 46.7019 66.9862 47.1051 65.7668 46.3793H65.7671ZM65.4767 54.1763C64.8548 55.1856 63.5352 55.502 62.5274 54.8824C55.1375 50.3398 43.8681 49.0237 35.1249 51.6777C33.9913 52.02 32.7936 51.3811 32.4493 50.2492C32.2851 49.7051 32.3434 49.118 32.6114 48.6168C32.8795 48.1156 33.3353 47.7412 33.879 47.5755C43.8667 44.5444 56.2833 46.0123 64.7713 51.2287C65.7791 51.8493 66.0963 53.1694 65.4767 54.1763ZM62.1117 61.6644C61.9945 61.8568 61.8406 62.0242 61.6587 62.157C61.4768 62.2898 61.2705 62.3855 61.0516 62.4385C60.8327 62.4914 60.6055 62.5007 60.383 62.4658C60.1605 62.4308 59.9471 62.3523 59.7549 62.2348C53.2973 58.288 45.169 57.3967 35.5966 59.5833C35.3772 59.6334 35.1502 59.6399 34.9283 59.6023C34.7065 59.5646 34.4942 59.4837 34.3037 59.364C34.1132 59.2444 33.9481 59.0883 33.8178 58.9049C33.6876 58.7214 33.5948 58.514 33.5447 58.2947C33.4943 58.0753 33.4877 57.8481 33.5252 57.6261C33.5627 57.4041 33.6436 57.1917 33.7633 57.001C33.883 56.8104 34.0392 56.6452 34.2228 56.515C34.4065 56.3847 34.614 56.292 34.8336 56.2421C45.3089 53.8477 54.2945 54.8782 61.543 59.3074C61.7351 59.4248 61.9023 59.5789 62.0349 59.7609C62.1675 59.9429 62.2629 60.1492 62.3157 60.368C62.3686 60.5869 62.3777 60.8141 62.3428 61.0365C62.3078 61.2589 62.2294 61.4723 62.1119 61.6644H62.1117ZM49.4995 22C34.3124 22 22 34.3119 22 49.4995C22 64.6886 34.3124 77 49.4998 77C64.6878 77 77 64.6886 77 49.4995C77 34.3122 64.6881 22 49.4998 22" fill="black"/>
</svg>
