<svg width="100" height="100" viewBox="0 0 100 100" fill="none" xmlns="http://www.w3.org/2000/svg">
<path fill-rule="evenodd" clip-rule="evenodd" d="M50 100C77.6142 100 100 77.6142 100 50C100 22.3858 77.6142 0 50 0C22.3858 0 0 22.3858 0 50C0 77.6142 22.3858 100 50 100ZM56.9809 67.8805C58.2303 67.8419 59.9037 67.4171 60.7782 66.9296L63.0405 74.7752C62.1901 76.233 58.3502 77.9273 54.894 77.9965C44.6445 78.2008 40.7619 69.459 40.7619 63.3085V45.3357H36V38.231C43.136 35.2246 44.8545 27.6984 45.2575 23.4103C45.2833 23.1159 45.4812 23 45.5946 23H52.4877V37.0106H61.9005V45.3357H52.4523V62.4573C52.4853 64.7888 53.2166 67.9988 56.9809 67.8805Z" fill="black"/>
</svg>
