<svg width="100" height="100" viewBox="0 0 100 100" fill="none" xmlns="http://www.w3.org/2000/svg">
<path fill-rule="evenodd" clip-rule="evenodd" d="M50 100C77.6142 100 100 77.6142 100 50C100 22.3858 77.6142 0 50 0C22.3858 0 0 22.3858 0 50C0 77.6142 22.3858 100 50 100ZM29 44.6039C29 32.6722 38.6722 23 50.6039 23C62.5363 23 71.9392 32.6722 71.9392 44.6039C71.9392 59.1152 55.3971 78 50.6039 78C45.5413 78 29 59.3914 29 44.6039ZM37.4767 44.6956C37.4767 51.9224 43.3346 57.7803 50.5614 57.7803C57.7873 57.7803 63.6461 51.9216 63.6461 44.6948C63.6461 37.468 57.7882 31.6101 50.5614 31.6101C49.5774 31.6101 48.6198 31.7197 47.6987 31.9253C49.376 32.8226 50.5172 34.59 50.5172 36.6242C50.5172 39.5651 48.1329 41.9494 45.1921 41.9494C42.4186 41.9494 40.1414 39.8285 39.8907 37.1205C38.3706 39.2583 37.4767 41.8729 37.4767 44.6956Z" fill="black"/>
</svg>
