<svg width="100" height="100" viewBox="0 0 100 100" fill="none" xmlns="http://www.w3.org/2000/svg">
<path fill-rule="evenodd" clip-rule="evenodd" d="M50 100C77.6142 100 100 77.6142 100 50C100 22.3858 77.6142 0 50 0C22.3858 0 0 22.3858 0 50C0 77.6142 22.3858 100 50 100ZM73.3033 54.4387C73.3124 54.3917 73.3197 54.3441 73.327 54.2965C73.3333 54.2555 73.3397 54.2145 73.3471 54.1738C74.5051 56.2509 75.1208 58.6009 75.1208 60.9903C75.1208 64.7328 73.6639 68.2524 71.0168 70.8969C68.3706 73.5449 64.8536 75 61.112 75C58.6886 75 56.3153 74.37 54.2195 73.1842C54.2603 73.1768 54.301 73.1707 54.3416 73.1646C54.389 73.1575 54.4362 73.1504 54.4835 73.1413L54.4811 73.1409C54.4347 73.1499 54.3879 73.1569 54.3409 73.1639C54.3005 73.1699 54.26 73.176 54.2195 73.1833C54.1889 73.1665 54.1581 73.1501 54.1272 73.1336C54.0783 73.1075 54.029 73.0813 53.9801 73.0531L53.9778 73.0527C54.0217 73.0778 54.0653 73.101 54.1087 73.1241C54.1458 73.1439 54.1827 73.1636 54.2195 73.1842C52.8583 73.4259 51.465 73.5529 50.0743 73.5529C46.8795 73.5529 43.7795 72.9265 40.8621 71.6898C38.0423 70.5004 35.5124 68.7921 33.3378 66.6192C31.165 64.4455 29.4584 61.9156 28.2682 59.0967C27.0323 56.1784 26.4068 53.0794 26.4068 49.8837C26.4068 48.5154 26.5294 47.1453 26.763 45.8047C25.613 43.7348 25 41.3937 25 39.0115C25 35.269 26.4587 31.7502 29.104 29.104C31.7502 26.4569 35.269 25 39.0115 25C41.3033 25 43.5683 25.5718 45.5819 26.6421C45.5844 26.6415 45.587 26.6413 45.5895 26.6409C45.5905 26.6408 45.5916 26.6406 45.5926 26.6404C47.0602 26.3585 48.5682 26.2171 50.0743 26.2171C53.2691 26.2171 56.3681 26.8426 59.2855 28.0767C62.1027 29.2687 64.6352 30.9753 66.8072 33.1481C68.9827 35.3218 70.6884 37.8526 71.8804 40.6715C73.1162 43.5889 73.7418 46.6889 73.7418 49.8837C73.7418 51.3245 73.6057 52.7661 73.3471 54.1738C73.3396 54.2149 73.3332 54.2561 73.3268 54.2974C73.3196 54.3444 73.3123 54.3916 73.3033 54.4387ZM37.9994 57.1467C37.9994 60.2448 41.7606 64.3784 50.1691 64.3784C58.1687 64.3784 62.1331 60.5223 62.1331 55.3596C62.1331 52.0243 60.5956 48.4849 54.5327 47.1336L48.9968 45.9049C46.892 45.4253 44.4677 44.7908 44.4677 42.8059C44.4677 40.8165 46.168 39.4267 49.2375 39.4267C52.8662 39.4267 54.1715 40.8896 55.2507 42.099C56.0111 42.9512 56.6593 43.6775 57.9288 43.6775C59.5441 43.6775 60.959 42.7271 60.959 41.0939C60.959 37.2816 54.8575 34.4206 49.6814 34.4206C44.0623 34.4206 38.079 36.8064 38.079 43.1612C38.079 46.2217 39.1726 49.4774 45.1953 50.988L52.674 52.8547C54.9372 53.4132 55.5037 54.6866 55.5037 55.8348C55.5037 57.7445 53.6065 59.6104 50.1691 59.6104C46.2932 59.6104 44.9658 57.8884 43.8436 56.4327C43.0221 55.367 42.3106 54.4441 40.7897 54.4441C39.1726 54.4441 37.9994 55.5573 37.9994 57.1467Z" fill="black"/>
</svg>
