<svg width="100" height="100" viewBox="0 0 100 100" fill="none" xmlns="http://www.w3.org/2000/svg">
<path d="M38.5119 34C47.0789 34 54.0233 40.9929 54.0233 49.6184C54.0233 58.2439 47.0784 65.2362 38.5119 65.2362C29.9454 65.2362 23 58.2439 23 49.6184C23 40.9929 29.9449 34 38.5119 34ZM63.2833 34.9149C67.5668 34.9149 71.0393 41.4972 71.0393 49.6184H71.0398C71.0398 57.7374 67.5674 64.3219 63.2839 64.3219C59.0004 64.3219 55.5279 57.7374 55.5279 49.6184C55.5279 41.4993 58.9998 34.9149 63.2833 34.9149ZM75.2722 36.4464C76.7784 36.4464 78 42.3436 78 49.6184C78 56.8911 76.7789 62.7904 75.2722 62.7904C73.7655 62.7904 72.545 56.8926 72.545 49.6184C72.545 42.3441 73.766 36.4464 75.2722 36.4464Z" fill="black"/>
</svg>
