<svg width="100" height="100" viewBox="0 0 100 100" fill="none" xmlns="http://www.w3.org/2000/svg">
<path fill-rule="evenodd" clip-rule="evenodd" d="M50 100C77.6142 100 100 77.6142 100 50C100 22.3858 77.6142 0 50 0C22.3858 0 0 22.3858 0 50C0 77.6142 22.3858 100 50 100ZM25 33.6446C25 27.7954 29.7954 23 35.6446 23H63.8673C69.7165 23 74.5119 27.7954 74.5119 33.6446V61.8673C74.5119 67.7165 69.7165 72.5119 63.8673 72.5119H55.0287L50.6964 77.5671C50.5802 77.7028 50.436 77.8118 50.2736 77.8866C50.1113 77.9613 49.9347 78 49.756 78C49.5773 78 49.4007 77.9613 49.2383 77.8866C49.076 77.8118 48.9317 77.7028 48.8155 77.5671L44.4832 72.5119H35.6446C29.7954 72.5119 25 67.7165 25 61.8673V33.6446ZM46.0426 31.6646C46.0426 30.9838 45.4856 30.4268 44.8048 30.4268C44.124 30.4268 43.567 30.9838 43.567 31.6646V35.378H39.8536C39.1728 35.378 38.6158 35.935 38.6158 36.6158C38.6158 37.2966 39.1728 37.8536 39.8536 37.8536H43.567V45.2804H39.8536C39.1728 45.2804 38.6158 45.8374 38.6158 46.5182C38.6158 47.199 39.1728 47.756 39.8536 47.756H43.567V51.4694C43.567 52.1501 44.124 52.7072 44.8048 52.7072C45.4856 52.7072 46.0426 52.1501 46.0426 51.4694V47.756H53.4694V51.4694C53.4694 52.1501 54.0264 52.7072 54.7072 52.7072C55.3879 52.7072 55.945 52.1501 55.945 51.4694V47.756H59.6583C60.3391 47.756 60.8961 47.199 60.8961 46.5182C60.8961 45.8374 60.3391 45.2804 59.6583 45.2804H55.945V37.8536H59.6583C60.3391 37.8536 60.8961 37.2966 60.8961 36.6158C60.8961 35.935 60.3391 35.378 59.6583 35.378H55.945V31.6646C55.945 30.9838 55.3879 30.4268 54.7072 30.4268C54.0264 30.4268 53.4694 30.9838 53.4694 31.6646V35.378H46.0426V31.6646ZM46.0426 45.2804V37.8536H53.4694V45.2804H46.0426ZM35.9661 53.3261C35.7155 52.8804 35.2288 52.6566 34.7501 52.7192C34.5905 52.7401 34.432 52.7946 34.2835 52.8812C33.6893 53.2154 33.4921 53.9697 33.8387 54.5639C37.2055 60.3815 43.1585 63.8473 49.756 63.8473C56.341 63.8473 62.2941 60.3815 65.6733 54.5639C66.0199 53.9821 65.8226 53.2154 65.2284 52.8812C64.6467 52.5346 63.8924 52.7319 63.5458 53.3261C60.5998 58.3639 55.4498 61.3717 49.756 61.3717C44.0497 61.3717 38.8997 58.3639 35.9661 53.3261Z" fill="black"/>
</svg>
