<svg width="100" height="100" viewBox="0 0 100 100" fill="none" xmlns="http://www.w3.org/2000/svg">
<path fill-rule="evenodd" clip-rule="evenodd" d="M50.5 78C65.687 78 78 65.687 78 50.5C78 35.313 65.6901 23 50.5 23C35.313 23 23 35.313 23 50.5C23 65.687 35.313 78 50.5 78ZM68.4537 53.5035V55.275C68.4537 55.3767 68.3915 55.4672 68.3011 55.5067C67.7473 55.7441 65.8515 56.6143 65.0632 57.7105C64.6247 58.3208 64.2088 58.9884 63.7908 59.6591L63.7907 59.6592C62.2912 62.0656 60.7656 64.514 58.0789 64.514H43.7458C38.6658 64.514 34.5492 60.3833 34.5492 55.2863V55.1224C34.5492 54.9868 34.6594 54.8767 34.7951 54.8767H42.7852C42.9434 54.8767 43.0592 55.0236 43.0451 55.179C42.9886 55.6988 43.0847 56.23 43.3305 56.7132C43.8052 57.6766 44.7884 58.2784 45.8507 58.2784H49.8062V55.1903H45.8959C45.6953 55.1903 45.5767 54.9586 45.6925 54.7947C45.7161 54.7585 45.7415 54.7214 45.7681 54.6825C45.7893 54.6515 45.8112 54.6194 45.8338 54.5856C46.2039 54.0601 46.7322 53.2436 47.2578 52.314C47.6165 51.6868 47.9641 51.0172 48.2438 50.3448C48.2962 50.232 48.339 50.1169 48.3809 50.0037L48.3809 50.0037L48.3907 49.9774C48.4105 49.9218 48.4305 49.8671 48.4502 49.8131C48.5065 49.6588 48.5608 49.5101 48.6026 49.3616C48.6487 49.2231 48.6874 49.079 48.7246 48.94L48.7247 48.9398L48.7495 48.8473C48.8823 48.2766 48.9389 47.672 48.9389 47.0447C48.9389 46.7989 48.9276 46.5418 48.905 46.296C48.8936 46.0276 48.8597 45.7592 48.8258 45.4909L48.8258 45.4908L48.8258 45.4908C48.8032 45.2534 48.7609 45.0189 48.7156 44.7732C48.6591 44.4143 48.58 44.0583 48.4896 43.6995L48.4585 43.5639C48.4383 43.4905 48.419 43.4181 48.3999 43.3462C48.355 43.1771 48.3106 43.0102 48.2551 42.8378C48.0319 42.0664 47.7748 41.3149 47.5036 40.6114C47.405 40.3326 47.2924 40.065 47.1797 39.7975L47.1786 39.7949C47.0477 39.4775 46.915 39.1828 46.7888 38.9025C46.7543 38.826 46.7204 38.7505 46.687 38.676C46.6079 38.5178 46.5401 38.3737 46.4723 38.2267C46.396 38.06 46.3169 37.8934 46.2378 37.7351C46.2157 37.6875 46.1922 37.6412 46.1692 37.5957C46.1334 37.5251 46.0986 37.4563 46.0711 37.3876L45.588 36.4948C45.5201 36.3733 45.6332 36.2292 45.7659 36.2659L48.7891 37.0853H48.7976C48.8009 37.0853 48.8032 37.0863 48.8052 37.0871C48.8063 37.0876 48.8074 37.088 48.8084 37.0881C48.8086 37.0881 48.8087 37.0881 48.8089 37.0881L49.2073 37.1983L49.6452 37.3226L49.8062 37.3678V35.5709C49.8062 34.7035 50.5013 34 51.3602 34C51.7896 34 52.1795 34.1751 52.4592 34.4605C52.7389 34.7459 52.9141 35.1358 52.9141 35.5709V38.2381L53.2362 38.3284C53.2617 38.3369 53.2871 38.3482 53.3097 38.3652C53.3396 38.3876 53.3742 38.414 53.4136 38.444L53.4137 38.4441L53.4139 38.4442C53.4787 38.4936 53.5563 38.5527 53.6459 38.6194C53.6915 38.6559 53.7384 38.6956 53.7879 38.7374C53.861 38.7992 53.9397 38.8656 54.0273 38.9331C54.3184 39.1676 54.6658 39.4699 55.0473 39.8174C55.149 39.905 55.2479 39.9954 55.3383 40.0859C55.8299 40.5435 56.3809 41.0804 56.9064 41.6737C57.0533 41.8404 57.1974 42.0099 57.3443 42.1879C57.3963 42.2519 57.4493 42.3155 57.5022 42.3789C57.5987 42.4947 57.6946 42.6097 57.7823 42.7248C57.7986 42.7466 57.8151 42.7684 57.8316 42.7904C57.8482 42.8123 57.8648 42.8343 57.8815 42.8563L57.8815 42.8564C58.03 43.0527 58.183 43.2551 58.3191 43.465C58.3534 43.5178 58.3899 43.5711 58.4265 43.6245C58.4741 43.694 58.5217 43.7636 58.5649 43.8323C58.7796 44.1572 58.9689 44.4934 59.1497 44.8296C59.226 44.985 59.3051 45.1545 59.3729 45.3213C59.5735 45.7705 59.7318 46.2282 59.8335 46.6859C59.8646 46.7848 59.8872 46.8922 59.8985 46.9883V47.0108C59.9323 47.1465 59.9436 47.2906 59.9549 47.4375C60.0002 47.9064 59.9776 48.3755 59.8759 48.8473C59.8335 49.0479 59.777 49.2372 59.7091 49.4378L59.6861 49.5032C59.6258 49.6751 59.5637 49.8519 59.486 50.0198C59.3165 50.4125 59.1158 50.8053 58.8785 51.1726C58.8022 51.3082 58.7118 51.4523 58.6214 51.5879C58.5729 51.6586 58.5237 51.7273 58.4754 51.7946C58.4254 51.8645 58.3764 51.9328 58.3304 52.0005C58.2061 52.17 58.0733 52.3479 57.9377 52.5062C57.8162 52.6729 57.6918 52.8396 57.5562 52.9865C57.3669 53.2097 57.1861 53.4216 56.9968 53.625C56.8838 53.7578 56.7623 53.8934 56.638 54.0149C56.5336 54.1314 56.4271 54.2375 56.3275 54.3368L56.3275 54.3368L56.2792 54.385C56.0898 54.5743 55.9316 54.7212 55.7988 54.8427L55.488 55.1281C55.4429 55.1677 55.3835 55.1903 55.3214 55.1903H52.9141V58.2784H55.9429C56.621 58.2784 57.2652 58.0382 57.7851 57.5975L57.7989 57.5854C58.0005 57.4096 58.7621 56.7453 59.6583 55.7554C59.6894 55.7215 59.729 55.696 59.7741 55.6847L68.14 53.2662C68.2954 53.221 68.4537 53.3396 68.4537 53.5035ZM36.565 51.4239L36.6837 51.2375L43.8376 40.0462C43.9421 39.8823 44.1879 39.8993 44.267 40.0773C45.4622 42.7558 46.4934 46.0869 46.0103 48.1607C45.804 49.0139 45.239 50.1695 44.6032 51.2375C44.5213 51.3929 44.4309 51.5455 44.3348 51.6924C44.2896 51.7602 44.2133 51.7998 44.1314 51.7998H36.7741C36.5764 51.7998 36.4605 51.585 36.565 51.4239Z" fill="black"/>
</svg>
