<svg width="100" height="100" viewBox="0 0 100 100" fill="none" xmlns="http://www.w3.org/2000/svg">
<path fill-rule="evenodd" clip-rule="evenodd" d="M50 100C77.6142 100 100 77.6142 100 50C100 22.3858 77.6142 0 50 0C22.3858 0 0 22.3858 0 50C0 77.6142 22.3858 100 50 100ZM78 50.5C78 65.687 65.687 78 50.5 78C35.313 78 23 65.687 23 50.5C23 35.313 35.313 23 50.5 23C65.6901 23 78 35.313 78 50.5ZM68.4537 55.275V53.5035C68.4537 53.3396 68.2954 53.221 68.14 53.2662L59.7741 55.6847C59.729 55.696 59.6894 55.7215 59.6583 55.7554C58.7621 56.7453 58.0005 57.4096 57.7989 57.5854L57.7851 57.5975C57.2652 58.0382 56.621 58.2784 55.9429 58.2784H52.9141V55.1903H55.3214C55.3835 55.1903 55.4429 55.1677 55.488 55.1281L55.7988 54.8427C55.9316 54.7212 56.0898 54.5743 56.2792 54.385L56.3275 54.3368L56.3275 54.3368L56.3276 54.3367C56.4272 54.2375 56.5336 54.1314 56.638 54.0149C56.7623 53.8934 56.8838 53.7578 56.9968 53.625C57.1861 53.4216 57.3669 53.2097 57.5562 52.9865C57.6918 52.8396 57.8162 52.6729 57.9377 52.5062C58.0733 52.3479 58.2061 52.17 58.3304 52.0005C58.3764 51.9328 58.4254 51.8645 58.4754 51.7946L58.4758 51.7941C58.5239 51.7269 58.573 51.6584 58.6214 51.5879C58.7118 51.4523 58.8022 51.3082 58.8785 51.1726C59.1158 50.8053 59.3165 50.4125 59.486 50.0198C59.5637 49.8519 59.6258 49.6751 59.6861 49.5032L59.7091 49.4378C59.777 49.2372 59.8335 49.0479 59.8759 48.8473C59.9776 48.3755 60.0002 47.9064 59.9549 47.4375C59.9436 47.2906 59.9323 47.1465 59.8985 47.0108V46.9883C59.8872 46.8922 59.8646 46.7848 59.8335 46.6859C59.7318 46.2282 59.5735 45.7705 59.3729 45.3213C59.3051 45.1545 59.226 44.985 59.1497 44.8296C58.9689 44.4934 58.7796 44.1572 58.5649 43.8323C58.5217 43.7636 58.4741 43.694 58.4265 43.6245C58.3899 43.5711 58.3534 43.5178 58.3191 43.465C58.183 43.2551 58.03 43.0527 57.8815 42.8564L57.8815 42.8563L57.8316 42.7904L57.7823 42.7248C57.6946 42.6097 57.5987 42.4947 57.5022 42.3789L57.5014 42.378C57.4488 42.3149 57.3961 42.2516 57.3443 42.1879C57.1974 42.0099 57.0533 41.8404 56.9064 41.6737C56.3809 41.0804 55.8299 40.5435 55.3383 40.0859C55.2479 39.9954 55.149 39.905 55.0473 39.8174C54.6658 39.4699 54.3184 39.1676 54.0273 38.9331C53.9397 38.8656 53.861 38.7992 53.7879 38.7374C53.7384 38.6956 53.6915 38.6559 53.6459 38.6194C53.5565 38.5529 53.479 38.4939 53.4143 38.4445L53.4139 38.4442L53.4137 38.4441L53.4136 38.444C53.3742 38.414 53.3396 38.3876 53.3097 38.3652C53.2871 38.3482 53.2617 38.3369 53.2362 38.3284L52.9141 38.2381V35.5709C52.9141 35.1358 52.7389 34.7459 52.4592 34.4605C52.1795 34.1751 51.7896 34 51.3602 34C50.5013 34 49.8062 34.7035 49.8062 35.5709V37.3678L49.6452 37.3226L49.2073 37.1983L48.8089 37.0881L48.8084 37.0881C48.8074 37.088 48.8064 37.0876 48.8052 37.0871C48.8042 37.0867 48.8032 37.0863 48.802 37.0859C48.8007 37.0856 48.7993 37.0853 48.7976 37.0853H48.7891L45.7659 36.2659C45.6332 36.2292 45.5201 36.3733 45.588 36.4948L46.0711 37.3876C46.0986 37.4563 46.1334 37.5251 46.1692 37.5957L46.1692 37.5959C46.1923 37.6413 46.2157 37.6876 46.2378 37.7351C46.3169 37.8934 46.396 38.06 46.4723 38.2267C46.5401 38.3737 46.6079 38.5178 46.687 38.676C46.705 38.7162 46.7232 38.7566 46.7415 38.7974C46.7571 38.8322 46.7729 38.8672 46.7888 38.9025L46.7888 38.9026C46.915 39.1828 47.0477 39.4775 47.1786 39.7949L47.1797 39.7975L47.1797 39.7975C47.2924 40.065 47.405 40.3326 47.5036 40.6114C47.7748 41.3149 48.0319 42.0664 48.2551 42.8378C48.3106 43.0102 48.355 43.1771 48.3999 43.3462C48.419 43.4181 48.4383 43.4905 48.4585 43.5639L48.4896 43.6995C48.58 44.0583 48.6591 44.4143 48.7156 44.7732C48.7609 45.0189 48.8032 45.2534 48.8258 45.4908L48.8258 45.4909C48.8597 45.7592 48.8936 46.0276 48.905 46.296C48.9276 46.5418 48.9389 46.7989 48.9389 47.0447C48.9389 47.672 48.8823 48.2766 48.7495 48.8473L48.7247 48.9398L48.7246 48.94L48.7246 48.9401C48.6873 49.0791 48.6487 49.2232 48.6026 49.3616C48.5608 49.5101 48.5065 49.6588 48.4502 49.8131C48.4305 49.8671 48.4105 49.9218 48.3907 49.9774L48.3809 50.0037L48.3809 50.0039C48.3389 50.117 48.2962 50.2321 48.2438 50.3448C47.9641 51.0172 47.6165 51.6868 47.2578 52.314C46.7322 53.2436 46.2039 54.0602 45.8338 54.5856C45.8112 54.6194 45.7893 54.6516 45.7681 54.6825C45.7415 54.7214 45.7161 54.7585 45.6925 54.7947C45.5767 54.9586 45.6953 55.1903 45.8959 55.1903H49.8062V58.2784H45.8507C44.7884 58.2784 43.8052 57.6766 43.3305 56.7132C43.0847 56.23 42.9886 55.6988 43.0451 55.179C43.0592 55.0236 42.9434 54.8767 42.7852 54.8767H34.7951C34.6594 54.8767 34.5492 54.9868 34.5492 55.1224V55.2863C34.5492 60.3833 38.6658 64.514 43.7458 64.514H58.0789C60.7656 64.514 62.2912 62.0656 63.7907 59.6592L63.7908 59.6591L63.7908 59.6591C64.2088 58.9883 64.6247 58.3208 65.0632 57.7105C65.8515 56.6143 67.7473 55.7441 68.3011 55.5067C68.3915 55.4672 68.4537 55.3767 68.4537 55.275ZM36.6837 51.2375L36.565 51.4239C36.4605 51.585 36.5764 51.7998 36.7741 51.7998H44.1314C44.2133 51.7998 44.2896 51.7602 44.3348 51.6924C44.4309 51.5455 44.5213 51.3929 44.6032 51.2375C45.239 50.1695 45.804 49.0139 46.0103 48.1607C46.4934 46.0869 45.4622 42.7558 44.267 40.0773C44.1879 39.8993 43.9421 39.8823 43.8376 40.0462L36.6837 51.2375Z" fill="black"/>
</svg>
