<svg width="100" height="100" viewBox="0 0 100 100" fill="none" xmlns="http://www.w3.org/2000/svg">
<path d="M73.3471 54.1738C73.331 54.2615 73.3203 54.351 73.3033 54.4387L73.2174 53.934C73.2639 54.0127 73.3033 54.0942 73.3471 54.1738C73.6057 52.7661 73.7418 51.3245 73.7418 49.8837C73.7418 46.6889 73.1162 43.5889 71.8804 40.6715C70.6884 37.8526 68.9827 35.3218 66.8072 33.1481C64.6352 30.9753 62.1027 29.2687 59.2855 28.0767C56.3681 26.8426 53.2691 26.2171 50.0743 26.2171C48.5682 26.2171 47.0602 26.3585 45.5926 26.6404C45.589 26.6413 45.5854 26.6413 45.5819 26.6421C45.6642 26.686 45.7474 26.7245 45.8289 26.7701L45.3313 26.6923C45.4145 26.6762 45.4986 26.6591 45.5819 26.6421C43.5683 25.5718 41.3033 25 39.0115 25C35.269 25 31.7503 26.4569 29.104 29.104C26.4587 31.7503 25 35.269 25 39.0115C25 41.3937 25.613 43.7348 26.763 45.8047C26.7782 45.7188 26.788 45.6329 26.805 45.547L26.8909 46.0427C26.8462 45.9649 26.8077 45.8843 26.763 45.8047C26.5294 47.1453 26.4068 48.5154 26.4068 49.8837C26.4068 53.0794 27.0323 56.1784 28.2682 59.0967C29.4584 61.9156 31.165 64.4455 33.3378 66.6192C35.5124 68.7921 38.0423 70.5004 40.8622 71.6898C43.7795 72.9265 46.8795 73.5529 50.0743 73.5529C51.465 73.5529 52.8583 73.4259 54.2195 73.1842C54.1398 73.1395 54.0593 73.0992 53.9778 73.0527L54.4835 73.1413C54.3958 73.1583 54.3081 73.1681 54.2195 73.1842C56.3153 74.37 58.6886 75 61.112 75C64.8536 75 68.3706 73.5449 71.0168 70.8969C73.6639 68.2524 75.1208 64.7328 75.1208 60.9903C75.1208 58.6009 74.5051 56.2509 73.3471 54.1738ZM50.1691 64.3784C41.7606 64.3784 37.9994 60.2448 37.9994 57.1467C37.9994 55.5573 39.1726 54.4441 40.7897 54.4441C44.3881 54.4441 43.4556 59.6104 50.1691 59.6104C53.6065 59.6104 55.5037 57.7445 55.5037 55.8348C55.5037 54.6866 54.9372 53.4132 52.674 52.8547L45.1953 50.988C39.1726 49.4774 38.079 46.2217 38.079 43.1612C38.079 36.8065 44.0623 34.4206 49.6814 34.4206C54.8575 34.4206 60.959 37.2816 60.959 41.0939C60.959 42.7271 59.5441 43.6775 57.9288 43.6775C54.8575 43.6775 55.4231 39.4267 49.2375 39.4267C46.168 39.4267 44.4677 40.8165 44.4677 42.8059C44.4677 44.7908 46.892 45.4253 48.9968 45.9049L54.5327 47.1336C60.5956 48.4849 62.1331 52.0243 62.1331 55.3596C62.1331 60.5223 58.1687 64.3784 50.1691 64.3784ZM53.9778 73.0518C54.0584 73.0983 54.1398 73.1395 54.2195 73.1833C54.3081 73.1672 54.3967 73.1574 54.4835 73.1404L53.9778 73.0518ZM73.3033 54.4387C73.3203 54.3501 73.331 54.2615 73.3471 54.1738C73.3033 54.0942 73.2648 54.0127 73.2174 53.934L73.3033 54.4387ZM26.805 45.547C26.788 45.6329 26.7782 45.7188 26.763 45.8047C26.8077 45.8843 26.8462 45.9649 26.8909 46.0427L26.805 45.547ZM45.8289 26.7701C45.7483 26.7245 45.6642 26.686 45.5819 26.6421C45.4986 26.6591 45.4145 26.6762 45.3313 26.6923L45.8289 26.7701Z" fill="black"/>
</svg>
