<svg width="100" height="100" viewBox="0 0 100 100" fill="none" xmlns="http://www.w3.org/2000/svg">
<path fill-rule="evenodd" clip-rule="evenodd" d="M50 100C77.6142 100 100 77.6142 100 50C100 22.3858 77.6142 0 50 0C22.3858 0 0 22.3858 0 50C0 77.6142 22.3858 100 50 100ZM19.5 50C19.5 33.1819 33.1819 19.5 50 19.5C66.8181 19.5 80.5 33.1819 80.5 50C80.5 66.8181 66.8181 80.5 50 80.5C33.1819 80.5 19.5 66.8181 19.5 50ZM50 22.438C34.8027 22.438 22.438 34.8027 22.438 50C22.438 65.1973 34.8027 77.562 50 77.562C65.1973 77.562 77.562 65.1973 77.562 50C77.562 34.8027 65.1973 22.438 50 22.438ZM37.3914 38.3074C38.6628 36.8077 40.4627 36.0612 42.4629 36.0612C44.8682 36.0612 46.7 36.8222 50.3764 38.5602L50.3798 38.5618L50.3885 38.566C53.1329 39.889 55.0214 40.7994 56.8863 40.7994C57.6993 40.7994 58.2532 40.4858 58.6383 39.8702C59.0481 39.2152 59.288 38.1802 59.3144 36.716L59.8143 36.7205V36.2256H63.4922L63.5136 36.7033C63.6526 39.8092 62.9311 42.0092 61.6583 43.437C60.3831 44.8675 58.62 45.4492 56.8323 45.4492C54.5442 45.4492 52.5047 44.7514 48.7587 43.006L48.7491 43.0016C48.4359 42.8475 48.1333 42.6963 47.8397 42.5496L47.8393 42.5494L47.8382 42.5488L47.7973 42.5283L47.7971 42.5283C46.8964 42.0781 46.0802 41.6702 45.301 41.3463C44.2623 40.9144 43.3434 40.6564 42.4629 40.6564C41.6179 40.6564 40.9942 40.9422 40.555 41.5412C40.0944 42.1693 39.7901 43.2049 39.7636 44.7932L39.7554 45.2848H35.5252L35.5107 44.7997C35.4268 41.9893 36.125 39.8011 37.3914 38.3074ZM47.1367 44.4636L52.2359 46.2713V67.9925H47.1367V44.4636Z" fill="black"/>
</svg>
